<svg width="284" height="337" viewBox="0 0 284 337" fill="none" xmlns="http://www.w3.org/2000/svg">
<path d="M89.188 152.685L86.1007 152.422C85.6205 152.381 85.2323 152.071 85.0675 151.573L84.3591 148.541C84.104 147.483 82.5947 147.354 82.1637 148.353L80.9512 151.221C80.7729 151.69 80.2692 151.923 79.7831 151.951L76.6958 151.687C75.5981 151.593 74.9948 152.993 75.8339 153.687L78.214 155.756C78.6022 156.066 78.6984 156.557 78.5143 157.095L77.3017 159.963C76.8708 160.962 78.0295 161.96 78.9114 161.344L81.5395 159.703C81.906 159.458 82.4548 159.505 82.843 159.814L85.2231 161.883C86.0623 162.577 87.3048 161.785 87.0438 160.795L86.3354 157.763C86.1706 157.265 86.4175 156.802 86.8584 156.495L89.4865 154.853C90.5742 154.255 90.2171 152.773 89.188 152.685Z" fill="#07DFAE" stroke="#07A57C" stroke-width="0.9338" stroke-miterlimit="10"/>
<path d="M258.84 265.175L255.657 266.838C255.153 267.071 254.536 267.019 254.085 266.634L251.534 264.136C250.575 263.225 249.052 264.062 249.29 265.326L249.883 268.901C249.973 269.462 249.646 270.056 249.211 270.295L246.028 271.958C244.872 272.551 245.143 274.232 246.434 274.481L250.053 274.997C250.602 275.044 251.047 275.497 251.131 276.126L251.724 279.701C251.962 280.966 253.665 281.249 254.176 280.118L255.767 276.868C256.02 276.337 256.529 276.035 257.141 276.156L260.76 276.672C261.989 276.847 262.81 275.327 261.919 274.422L259.369 271.923C258.918 271.539 258.833 270.91 259.086 270.379L260.677 267.129C261.206 265.792 259.996 264.583 258.84 265.175Z" fill="#07DFAE" stroke="#07A57C" stroke-width="1.0816" stroke-miterlimit="10"/>
<path d="M130.543 284.965C108.716 236.315 83.3729 181.904 83.3729 181.904C83.3729 181.904 78.3039 166.821 21.1519 201.604C21.0088 201.661 20.9343 201.724 20.7913 201.781C6.34487 208.287 6.41007 239.874 20.9746 272.424C35.545 304.905 59.0368 325.986 73.546 319.555C87.8675 315.319 137.276 299.984 130.543 284.965Z" fill="#07DFAE" stroke="#07A57C" stroke-width="4" stroke-miterlimit="10"/>
<path d="M22.2566 208.886L22.9661 208.67C22.9661 208.67 23.3954 208.5 24.1793 208.221C34.5258 204.406 114.029 175.748 175.449 142.78L195.421 167.844L216.975 207.557L211.471 220.217C211.888 220.183 220.285 218.966 223.062 225.285C223.176 225.571 223.353 225.931 223.392 226.28C225.795 233.742 210.819 239.165 210.178 239.387L205.516 242.997C203.976 244.04 171.461 266.279 147.754 274.412L69.8944 315.373L22.2566 208.886Z" fill="#395DA0"/>
<path d="M222.41 225.643C222.53 225.861 222.638 226.216 222.746 226.57C224.921 233.46 210.014 238.889 210.014 238.889L205.209 242.556C205.209 242.556 171.863 265.622 147.515 273.976L70.3141 314.511L23.1139 209.374C23.1139 209.374 23.5431 209.203 24.327 208.925C35.8868 204.661 114.32 176.394 175.739 143.426L194.53 167.768L214.876 205.442L216.545 208.557L211.607 221.058C211.681 220.995 219.804 219.754 222.41 225.643ZM223.704 225.063C222.423 222.258 219.888 220.383 216.281 219.729C213.698 219.232 211.524 219.599 211.387 219.588L211.318 219.582L211.25 219.576L217.183 206.745L215.987 204.57L196.17 167.977L175.033 141.984C113.533 175.083 34.1047 203.679 23.7582 207.494C22.9742 207.773 22.545 207.943 22.545 207.943L21.1201 208.444L21.7634 209.812L68.8892 315.011L69.4698 316.305L70.7692 315.655L147.913 274.978C171.415 266.827 203.545 245.04 205.75 243.501L210.338 239.954C210.767 239.783 214.338 238.429 217.768 236.304C221.346 234.053 225.316 230.453 223.902 225.978C223.994 225.71 223.812 225.418 223.704 225.063Z" fill="#223266"/>
<path d="M143.932 223.706C143.932 223.706 158.587 221.226 171.141 233.633L143.932 223.706Z" fill="#395DA0"/>
<path d="M143.932 223.706C143.932 223.706 158.587 221.226 171.141 233.633" stroke="#223266" stroke-width="1.9947" stroke-miterlimit="10" stroke-linecap="round"/>
<path d="M134.72 177.861L30.0928 224.759L24.3396 208.788C35.8993 204.523 114.332 176.257 175.752 143.289L134.72 177.861Z" fill="#2B437B"/>
<path opacity="0.6" d="M152.37 248.493C144.053 245.329 138.638 239.277 140.275 234.976C141.911 230.676 149.98 229.755 158.297 232.92C166.613 236.085 172.029 242.137 170.392 246.437C168.756 250.738 160.687 251.658 152.37 248.493Z" fill="#4671B0"/>
<path d="M68.7314 185.836C64.4398 189.961 83.9679 268.753 119.07 291.448L68.5884 319.339L17.4639 206.749L71.244 184.738L68.7314 185.836Z" fill="#07DFAE"/>
<path d="M67.9281 184.731C72.7431 225.432 90.0058 269.269 121.918 294.525" stroke="#07A57C" stroke-width="3" stroke-miterlimit="10" stroke-linecap="round"/>
<path opacity="0.51" d="M19.9855 212.01C26.8155 208.101 33.7827 204.205 40.55 200.222C45.0556 197.635 49.7043 194.992 54.926 194.539C56.0413 194.427 57.0763 194.447 58.076 194.878C60.0756 195.74 60.9229 197.954 61.6507 199.952C62.9296 203.585 63.9952 208.099 61.4046 210.919C60.3386 212.071 58.7648 212.697 57.2596 213.329C48.6124 216.667 39.8221 220.062 31.1691 223.469C26.0243 225.449 20.1799 228.335 19.2993 233.789C18.859 236.515 19.8594 239.365 19.968 242.139C20.0172 243.179 19.9293 244.209 20.1216 245.192C20.7456 247.595 23.3902 248.996 25.8776 249.001C28.365 249.007 30.6718 247.891 32.8982 246.906C37.7921 244.629 42.6114 242.415 47.4425 240.063C52.9145 237.49 58.5923 234.935 64.5804 234.41C65.9015 234.315 67.354 234.301 68.4792 234.881C69.6045 235.461 70.5456 236.578 71.2751 237.746C73.487 240.976 75.3952 244.525 76.8113 248.171C77.1016 248.817 77.3233 249.458 77.0647 250.058C76.8688 250.732 76.1359 251.223 75.5577 251.519C64.4455 257.826 52.7744 263.393 40.8992 268.115C39.2509 268.803 37.4654 269.48 36.5642 271.13C35.755 272.513 35.9515 274.257 36.3714 275.813C37.2856 278.863 39.27 281.52 41.1857 284.172C42.6798 286.096 44.2367 288.095 46.5459 288.569C48.855 289.043 51.248 287.727 53.2862 286.519C63.0305 280.855 73.4532 276.148 84.131 272.5C85.9106 271.892 87.8216 271.364 89.5526 272.134C90.6152 272.639 91.3681 273.533 92.1151 274.495C94.5446 277.605 97.0484 280.652 99.5465 283.768C99.9857 284.29 100.482 284.954 100.423 285.64C100.376 286.189 99.9922 286.64 99.5395 287.085C97.5054 289.053 94.9694 290.426 92.3372 291.307C82.3747 294.671 72.9125 299.46 64.3111 305.498C63.5781 305.988 62.8334 306.616 62.6259 307.427C62.338 308.37 62.9478 309.32 63.5008 310.128C65.4283 312.642 68.0142 314.729 70.8646 316.147" stroke="#07A57C" stroke-width="3" stroke-miterlimit="10"/>
<path d="M258.722 179.196L257.866 181.127C257.699 181.458 257.413 181.572 257.064 181.612L254.938 181.43C254.257 181.303 253.826 182.302 254.334 182.829L255.938 184.28C256.189 184.577 256.303 184.864 256.136 185.195L255.28 187.126C254.947 187.788 255.718 188.476 256.376 188.049L258.191 187.029C258.483 186.847 258.895 186.882 259.146 187.18L260.749 188.63C261.263 189.088 262.202 188.616 261.992 187.838L261.55 185.727C261.511 185.378 261.603 185.109 261.895 184.927L263.71 183.907C264.362 183.548 264.17 182.564 263.347 182.494L261.22 182.312C260.877 182.283 260.62 182.054 260.512 181.699L260.071 179.588C260.01 178.684 258.986 178.528 258.722 179.196Z" fill="#07DFAE" stroke="#07A57C" stroke-width="0.6362" stroke-miterlimit="10"/>
<path d="M162.849 316.129L160.76 317.125C160.468 317.307 160.062 317.203 159.811 316.906L158.162 315.175C157.591 314.574 156.584 315.04 156.651 315.875L156.938 318.18C156.971 318.598 156.736 318.923 156.444 319.106L154.355 320.102C153.565 320.449 153.677 321.564 154.563 321.709L156.872 322.183C157.209 322.281 157.529 322.585 157.568 322.934L157.855 325.239C157.928 326.005 159.008 326.305 159.415 325.579L160.557 323.535C160.724 323.203 161.085 323.027 161.49 323.13L163.8 323.604C164.617 323.743 165.185 322.755 164.615 322.154L162.966 320.423C162.715 320.125 162.675 319.776 162.848 319.376L163.99 317.332C164.398 316.606 163.639 315.781 162.849 316.129Z" fill="#07DFAE" stroke="#07A57C" stroke-width="0.7057" stroke-miterlimit="10"/>
<path d="M213.837 120.559L211.748 121.556C211.456 121.738 211.05 121.634 210.799 121.336L209.15 119.606C208.58 119.004 207.572 119.471 207.639 120.306L207.926 122.611C207.959 123.029 207.724 123.354 207.432 123.536L205.343 124.533C204.553 124.88 204.665 125.995 205.551 126.14L207.86 126.614C208.198 126.712 208.517 127.015 208.556 127.364L208.843 129.669C208.916 130.436 209.996 130.735 210.404 130.01L211.546 127.965C211.712 127.634 212.073 127.457 212.479 127.561L214.788 128.035C215.605 128.174 216.173 127.186 215.603 126.584L213.954 124.854C213.703 124.556 213.664 124.207 213.836 123.807L214.978 121.762C215.386 121.037 214.621 120.281 213.837 120.559Z" fill="#07DFAE" stroke="#07A57C" stroke-width="0.7057" stroke-miterlimit="10"/>
<path d="M56.7038 94.4854C41.5207 65.1306 53.0387 29.0044 82.3935 13.8213C111.748 -1.36179 147.949 10.0934 163.132 39.4482C177.011 66.2728 168.646 98.6603 144.731 115.69L158.9 143.162C162.081 142.328 165.486 143.724 167.024 146.758L222.704 254.555C224.481 258.024 223.145 262.332 219.677 264.109L211.794 268.204C208.325 269.981 204.016 268.645 202.24 265.176L146.559 157.38C145.021 154.346 145.812 150.751 148.338 148.686L134.403 121.718C105.596 134.53 71.3515 122.827 56.7038 94.4854ZM153.011 44.6648C140.67 20.8741 111.407 11.532 87.6218 23.8048C63.8369 36.0776 54.489 65.4095 66.7618 89.1943C79.1032 112.985 108.366 122.327 132.151 110.054C155.936 97.7816 165.347 68.5242 153.011 44.6648Z" fill="#D7E8F7" stroke="#07A57C" stroke-width="3" stroke-miterlimit="10"/>
<path opacity="0.22" d="M169.201 177.905L177.479 173.222L211.349 213.572C211.349 213.572 205.323 218.586 198.34 221.859L213.134 234.733L208.543 239.938C189.856 248.362 190.169 224.478 190.169 224.478C187.583 224.81 185.119 224.53 183.086 223.251C173.641 217.33 175.315 204.204 175.315 204.204C175.315 204.204 162.252 184.015 169.201 177.905Z" fill="#2B437B"/>
<path d="M168.749 191.273C167.759 189.115 167.335 186.798 167.346 184.242C167.347 180.994 169.126 177.967 172.085 176.492L190.977 166.496C193.438 165.186 196.229 164.872 198.927 165.655C200.95 166.243 202.961 166.968 204.755 167.812C205.023 167.904 205.354 168.071 205.617 168.231C208.45 169.855 210.501 173.348 211.719 176.078C211.896 176.439 212.066 176.868 212.243 177.228C213.039 179.231 213.126 181.45 212.544 183.405L211.951 185.496C211.266 187.857 209.586 189.717 207.285 190.764L184.615 200.506C184.323 200.689 183.659 201.185 182.349 201.142C180.211 201.098 177.406 199.959 174.145 197.677C171.673 195.876 169.916 193.791 168.749 191.273Z" fill="#395DA0"/>
<path d="M211.01 176.294C211.187 176.654 211.363 177.015 211.534 177.444C212.273 179.304 212.378 181.317 211.802 183.203L211.208 185.295C210.609 187.455 209.01 189.184 206.933 190.043L184.119 199.842C184.119 199.842 183.655 200.424 182.277 200.376C180.83 200.321 178.396 199.698 174.479 197.014C171.932 195.276 170.387 193.14 169.396 190.982C168.349 188.681 168.006 186.233 168.038 184.232C168.022 181.19 169.709 178.431 172.319 176.996L191.21 167C193.454 165.81 196.171 165.558 198.668 166.255C200.286 166.739 202.371 167.401 204.434 168.337C204.702 168.429 204.971 168.521 205.228 168.751C207.86 170.289 209.792 173.564 211.01 176.294ZM212.235 175.707C210.431 171.752 208.315 169.015 205.951 167.569C205.619 167.402 205.357 167.241 204.957 167.069C203.094 166.219 201.077 165.563 198.991 164.901C196.163 164.037 193.16 164.402 190.555 165.769L171.664 175.765C168.556 177.365 166.616 180.655 166.592 184.177C166.575 186.802 167.124 189.268 168.109 191.494C169.264 194.15 171.084 196.309 173.63 198.047C177.022 200.41 179.953 201.697 182.166 201.679C183.549 201.659 184.345 201.243 184.792 200.867L207.388 191.188C209.894 190.158 211.66 188.097 212.432 185.537L213.094 183.452C213.767 181.229 213.624 178.867 212.765 176.789C212.588 176.429 212.411 176.068 212.235 175.707Z" fill="#223266"/>
<path d="M184.286 199.511C184.286 199.511 183.822 200.093 182.444 200.044C181.987 199.729 181.462 199.408 181.005 199.092C175.854 195.473 174.642 190.256 174.627 186.384C174.611 183.342 176.292 180.653 178.896 179.286L197.644 169.347C199.957 168.162 202.679 167.842 205.165 168.676C208.323 170.536 210.441 174.863 211.516 177.65C212.142 179.224 212.195 181.025 211.706 182.711L211.02 185.071C210.421 187.231 208.828 188.892 206.813 189.826L184.286 199.511Z" fill="#395DA0"/>
<path opacity="0.6" d="M183.574 191.901C182.251 188.952 185.791 184.491 191.481 181.938C197.171 179.384 202.857 179.705 204.18 182.654C205.503 185.603 201.963 190.064 196.273 192.617C190.583 195.171 184.898 194.85 183.574 191.901Z" fill="#4671B0"/>
<path d="M156.781 166.339C155.79 164.181 155.366 161.864 155.377 159.308C155.378 156.06 157.157 153.033 160.117 151.559L179.008 141.563C181.469 140.253 184.26 139.938 186.958 140.722C188.981 141.309 190.992 142.034 192.786 142.878C193.054 142.97 193.386 143.137 193.648 143.298C196.481 144.922 198.532 148.414 199.75 151.144C199.927 151.505 200.098 151.934 200.274 152.295C201.07 154.298 201.157 156.517 200.576 158.471L199.982 160.563C199.297 162.923 197.617 164.784 195.317 165.831L172.646 175.573C172.354 175.755 171.69 176.251 170.381 176.208C168.242 176.164 165.437 175.026 162.177 172.743C159.71 170.874 157.953 168.789 156.781 166.339Z" fill="#395DA0"/>
<path d="M199.047 151.292C199.224 151.652 199.4 152.013 199.571 152.442C200.31 154.302 200.415 156.315 199.839 158.201L199.246 160.293C198.646 162.453 197.047 164.182 194.97 165.041L172.157 174.84C172.157 174.84 171.692 175.422 170.314 175.374C168.868 175.319 166.433 174.696 162.516 172.012C159.969 170.274 158.424 168.138 157.434 165.98C156.386 163.679 156.043 161.231 156.075 159.23C156.059 156.188 157.746 153.429 160.356 151.994L179.247 141.998C181.491 140.808 184.208 140.556 186.705 141.253C188.323 141.737 190.408 142.399 192.471 143.335C192.739 143.427 193.008 143.519 193.265 143.749C195.898 145.287 197.829 148.562 199.047 151.292ZM200.272 150.705C198.468 146.75 196.352 144.013 193.988 142.567C193.656 142.4 193.394 142.239 192.994 142.067C191.131 141.217 189.114 140.561 187.029 139.899C184.2 139.035 181.197 139.4 178.592 140.767L159.701 150.763C156.593 152.363 154.653 155.653 154.629 159.175C154.612 161.8 155.161 164.266 156.146 166.492C157.301 169.148 159.121 171.307 161.667 173.045C165.059 175.408 167.99 176.695 170.203 176.677C171.587 176.657 172.382 176.241 172.829 175.865L195.425 166.186C197.932 165.156 199.697 163.096 200.469 160.535L201.131 158.45C201.804 156.227 201.661 153.865 200.802 151.787C200.619 151.495 200.449 151.066 200.272 150.705Z" fill="#223266"/>
<path d="M172.323 174.509C172.323 174.509 171.859 175.091 170.481 175.042C170.024 174.727 169.499 174.406 169.042 174.09C163.892 170.471 162.679 165.254 162.664 161.382C162.648 158.34 164.329 155.651 166.933 154.284L185.681 144.345C187.994 143.16 190.716 142.84 193.202 143.674C196.36 145.534 198.479 149.861 199.553 152.648C200.179 154.222 200.232 156.023 199.743 157.709L199.057 160.069C198.458 162.23 196.865 163.89 194.85 164.824L172.323 174.509Z" fill="#395DA0"/>
<path opacity="0.6" d="M171.631 166.91C170.308 163.961 173.848 159.501 179.538 156.947C185.228 154.394 190.913 154.715 192.237 157.664C193.56 160.613 190.02 165.074 184.33 167.627C178.64 170.18 172.954 169.86 171.631 166.91Z" fill="#4671B0"/>
<path d="M180.893 210.9C180.848 210.62 178.888 204.44 182.413 200.388C185.784 196.529 207.294 189.038 208.215 188.771L208.427 188.72L208.627 188.806C208.696 188.812 210.987 189.492 212.901 190.554C213.826 191.047 214.545 191.523 214.979 192.113C216.165 193.597 218.069 196.386 219.356 199.122C220.175 200.85 220.658 202.481 220.747 203.871L220.741 203.939L220.735 204.008C220.786 204.22 220.558 209.314 217.804 210.806L217.661 210.863C212.577 213.746 200.052 220.416 193.082 220.304C192.664 220.337 192.19 220.228 191.778 220.192C184.678 219.171 180.995 211.324 180.887 210.969L180.893 210.9Z" fill="#395DA0"/>
<path d="M218.645 199.337C219.345 200.848 219.903 202.416 219.985 203.874C219.985 203.874 219.843 208.769 217.445 210.153C215.487 211.23 200.733 219.713 193.145 219.549C192.665 219.508 192.254 219.473 191.911 219.443C185.016 218.44 181.533 210.678 181.533 210.678C181.533 210.678 179.636 204.573 182.926 200.846C186.291 197.056 208.43 189.48 208.43 189.48C208.43 189.48 210.653 190.154 212.578 191.079C213.372 191.492 214.023 191.962 214.462 192.484C215.398 193.669 217.308 196.389 218.645 199.337ZM219.87 198.751C218.595 195.878 216.623 193.083 215.442 191.531C214.94 190.935 214.164 190.316 213.176 189.748C211.268 188.617 208.897 188.069 208.765 187.989L208.359 187.885L207.936 187.987C205.659 188.76 185.355 195.871 181.842 199.786C178.019 204.089 180.081 210.693 180.126 210.973L180.12 211.041L180.114 211.11C180.228 211.396 184.088 219.604 191.599 220.661C192.074 220.77 192.56 220.743 193.04 220.784C200.147 220.907 212.884 214.187 217.974 211.235L218.117 211.178C221.1 209.429 221.334 204.266 221.375 203.786L221.381 203.717L221.387 203.649C221.229 202.253 220.684 200.548 219.87 198.751Z" fill="#223266"/>
<path d="M193.145 219.549C192.665 219.508 192.253 219.473 191.91 219.443C187.844 216.885 185.75 212.283 185.75 212.283C185.75 212.283 183.852 206.177 187.143 202.45C190.352 198.855 210.798 191.687 212.509 191.073C213.303 191.486 213.954 191.957 214.394 192.478C215.899 194.265 219.462 199.476 220.054 203.88C220.054 203.88 219.912 208.775 217.513 210.159C215.549 211.305 200.733 219.714 193.145 219.549Z" fill="#395DA0"/>
<path opacity="0.6" d="M194.041 212.857C192.889 210.29 195.949 206.416 200.876 204.205C205.803 201.995 210.731 202.284 211.883 204.851C213.035 207.419 209.975 211.292 205.048 213.503C200.121 215.714 195.193 215.425 194.041 212.857Z" fill="#4671B0"/>
<path d="M194.975 231.315C194.924 231.103 193.168 225.77 196.092 222.288C198.935 218.938 217.201 212.206 217.985 211.927L218.129 211.87L218.26 211.951C218.329 211.957 220.289 212.47 221.939 213.371C222.733 213.784 223.39 214.186 223.692 214.695C224.759 215.961 226.424 218.315 227.539 220.622C228.24 222.133 228.677 223.483 228.783 224.667L228.777 224.736L228.772 224.804C228.823 225.016 228.728 229.362 226.403 230.683L226.329 230.746C222.035 233.282 211.438 239.218 205.491 239.263C205.142 239.302 204.736 239.198 204.387 239.237C198.305 238.441 195.065 231.876 194.883 231.584L194.975 231.315Z" fill="#395DA0"/>
<path d="M227.041 220.786C227.622 222.08 228.134 223.368 228.302 224.626C228.302 224.626 228.288 228.84 226.25 230.048C224.647 231.017 212.125 238.447 205.624 238.514C205.212 238.478 204.869 238.449 204.526 238.42C198.643 237.71 195.546 231.087 195.546 231.087C195.546 231.087 193.848 225.897 196.542 222.672C199.379 219.39 218.144 212.494 218.144 212.494C218.144 212.494 220.104 213.007 221.692 213.833C222.355 214.166 222.943 214.562 223.319 215.009C224.204 215.983 225.806 218.262 227.041 220.786ZM228.054 220.251C226.882 217.801 225.217 215.447 224.15 214.182C223.711 213.66 222.991 213.184 222.135 212.696C220.484 211.795 218.449 211.345 218.318 211.264L217.981 211.167L217.626 211.274C215.697 212.008 198.426 218.41 195.509 221.824C192.287 225.557 194.225 231.182 194.276 231.393L194.271 231.462L194.265 231.531C194.378 231.817 197.795 238.743 204.226 239.5C204.638 239.535 205.049 239.57 205.461 239.605C211.539 239.641 222.285 233.579 226.579 231.044L226.654 230.981C229.201 229.471 229.302 225.057 229.275 224.571L229.281 224.502L229.286 224.434C229.255 223.187 228.823 221.768 228.054 220.251Z" fill="#223266"/>
<path d="M205.555 238.508C205.143 238.473 204.8 238.444 204.457 238.414C200.905 236.314 199.032 232.353 199.032 232.353C199.032 232.353 197.333 227.163 200.027 223.938C202.716 220.782 220.061 214.316 221.56 213.754C222.223 214.087 222.811 214.482 223.188 214.929C224.505 216.493 227.658 220.84 228.234 224.621C228.234 224.621 228.219 228.835 226.181 230.043C224.578 231.012 212.119 238.516 205.555 238.508Z" fill="#395DA0"/>
<path opacity="0.6" d="M206.242 232.765C205.218 230.599 207.759 227.249 211.919 225.281C216.078 223.314 220.281 223.474 221.305 225.64C222.33 227.806 219.788 231.157 215.629 233.124C211.469 235.092 207.266 234.931 206.242 232.765Z" fill="#4671B0"/>
<path d="M92.1145 199.307C92.2593 198.421 94.0006 186.13 108.073 175.101C122.667 163.632 136.537 154.175 136.537 154.175C136.537 154.175 149.096 147.922 156.823 157.774C158.945 160.443 161.339 163.965 163.721 167.624C170.139 177.432 176.464 188.339 176.464 188.339C176.464 188.339 181.804 199.438 173.033 201.798C164.194 204.153 157.662 202.143 148.847 187.223C148.847 187.223 161.294 217.864 127.88 238.506" fill="#395DA0"/>
<path d="M92.1145 199.307C92.2593 198.421 94.0006 186.13 108.073 175.101C122.667 163.632 136.537 154.175 136.537 154.175C136.537 154.175 149.096 147.922 156.823 157.774C158.945 160.443 161.339 163.965 163.721 167.624C170.139 177.432 176.464 188.339 176.464 188.339C176.464 188.339 181.804 199.438 173.033 201.798C164.194 204.153 157.662 202.143 148.847 187.223C148.847 187.223 161.294 217.864 127.88 238.506" stroke="#223266" stroke-width="1.9947" stroke-miterlimit="10" stroke-linecap="round"/>
<path d="M101.071 197.998L93.0912 199.182C93.1616 198.359 94.4091 186.994 108.264 176.084C122.635 164.804 136.122 154.968 136.122 154.968C136.122 154.968 148.538 148.773 156.071 158.47C158.13 161.064 160.53 164.517 162.913 168.176C162.913 168.176 148.429 154.085 134.059 167.784C119.764 181.42 101.071 197.998 101.071 197.998Z" fill="#2B437B"/>
<path opacity="0.6" d="M114.625 229.601C110.294 225.716 112.877 215.774 120.393 207.395C127.91 199.017 137.515 195.374 141.846 199.26C146.177 203.145 143.594 213.087 136.077 221.466C128.56 229.844 118.955 233.487 114.625 229.601Z" fill="#4671B0"/>
<path opacity="0.6" d="M163.866 192.719C163.795 188.613 166.235 185.241 169.315 185.188C172.395 185.135 174.949 188.422 175.019 192.528C175.089 196.635 172.65 200.007 169.57 200.059C166.49 200.112 163.936 196.826 163.866 192.719Z" fill="#4671B0"/>
</svg>
