<svg width="1721" height="1825" viewBox="0 0 1721 1825" fill="none" xmlns="http://www.w3.org/2000/svg">
<path d="M1343.67 695.724C1343.05 693.967 1327.65 657.225 1346.97 630.817C1365.53 604.979 1492.24 546.945 1497.87 544.361L1499.06 543.947L1500.4 544.154C1500.82 544.361 1515.03 546.996 1527.53 552.164C1533.58 554.645 1538.08 557.383 1541.02 560.277C1549.45 568.804 1562.62 584.514 1571.67 600.638C1577.76 610.921 1581.33 620.43 1582.93 629.009L1583.14 629.577L1583.35 630.146C1583.76 631.334 1585.31 662.651 1569.75 673.503L1568.98 674.072C1539.89 694.691 1467.07 742.854 1424.08 746.42C1421.34 747.04 1418.6 746.627 1416.07 746.834C1372.04 744.56 1344.85 699.135 1343.87 697.171L1343.67 695.724Z" fill="#395DA0"/>
<path d="M1567.38 602.392C1572.29 611.125 1576.83 620.634 1578.44 629.212C1578.44 629.212 1580.55 659.392 1566.6 669.056C1555.54 676.704 1470.38 737.218 1423.4 740.836C1420.46 740.836 1417.93 741.043 1415.6 740.888C1372.91 738.82 1347.13 693.551 1347.13 693.551C1347.13 693.551 1331.93 657.377 1349.87 632.726C1368.06 607.663 1499.37 548.027 1499.37 548.027C1499.37 548.027 1513.63 550.662 1525.31 555.468C1530.17 557.38 1534.72 560.068 1537.61 563.013C1544.59 569.835 1557.77 585.545 1567.38 602.392ZM1574.77 598.257C1565.1 581.359 1551.98 565.649 1543.14 556.967C1539.99 553.453 1534.36 550.197 1527.9 547.51C1515.6 541.929 1500.56 539.862 1499.78 539.5L1497.04 539.138L1494.72 539.913C1481.33 546.425 1361.44 601.513 1342.27 627.507C1321.39 656.085 1337.98 695.36 1338.6 697.065L1338.81 697.633L1339.01 698.202C1340 700.166 1368.16 747.502 1414.51 749.983C1417.46 749.983 1420.35 749.931 1423.3 749.931C1466.71 746.572 1540.5 697.427 1569.96 676.962L1570.74 676.394C1588 663.991 1586.65 632.261 1586.24 629.161L1586.45 628.747L1586.24 628.179C1585.05 618.877 1581.07 609.161 1574.77 598.257Z" fill="#223266"/>
<path d="M1424.02 741.612C1421.08 741.612 1418.55 741.819 1416.22 741.664C1389.66 728.589 1374.26 701.562 1374.26 701.562C1374.26 701.562 1359.06 665.388 1377 640.737C1394.21 616.656 1515.44 560.792 1525.57 556.089C1530.43 558.001 1534.98 560.689 1537.87 563.634C1547.84 573.918 1573.16 603.374 1579.37 630.195C1579.37 630.195 1581.48 660.375 1567.53 670.038C1555.59 677.687 1470.58 737.839 1424.02 741.612Z" fill="#395DA0"/>
<path opacity="0.6" d="M1493.17 697.37C1522 680.913 1538.41 655.375 1529.82 640.329C1521.23 625.283 1490.89 626.426 1462.07 642.884C1433.24 659.341 1416.83 684.879 1425.42 699.925C1434.01 714.971 1464.34 713.827 1493.17 697.37Z" fill="#4671B0"/>
<path d="M767.047 1593.05C629.068 1285.57 469.074 940.829 469.074 940.829C469.074 940.829 436.879 845.535 75.5488 1065.48C74.722 1065.99 74.1018 1066.15 73.275 1066.66C-18.3494 1107.8 -17.6262 1307.64 74.6701 1513.47C166.605 1719.09 315.591 1852.47 407.009 1811.75C497.238 1785.14 809.836 1687.78 767.047 1593.05Z" fill="#07DFAE" stroke="#07A57C" stroke-width="10" stroke-miterlimit="10"/>
<path d="M81.9043 1111.42L86.5551 1109.71C86.5551 1109.71 89.3974 1108.42 94.0484 1106.66C159.627 1082.74 745.91 863.831 1134.99 655.467L1312.81 564.928C1313.64 564.411 1364.9 545.445 1390.07 601.567C1390.59 602.394 1390.74 603.014 1390.85 603.582C1394.88 612.781 1395.14 623.168 1391.73 634.382L1391.16 636.088C1373.79 684.768 1288.21 732.725 1281.81 736.446L1177.99 852.307L1314.21 1103.87L1243.26 1321.69C1233.44 1328.41 1024.45 1471.25 874.535 1522.88L376.673 1782.76L81.9043 1111.42Z" fill="#395DA0"/>
<path d="M1239.69 1324.23C1239.69 1324.23 1028.33 1470.01 874.587 1522.87L385.975 1780.28L87.6923 1114.57C87.6923 1114.57 90.5346 1113.28 95.1856 1111.52C168.516 1084.18 748.235 868.378 1136.95 659.807L1314.78 569.268C1314.78 569.268 1362.27 550.509 1386.14 603.789C1386.66 604.615 1386.4 604.977 1386.92 605.804C1390.85 614.382 1390.33 624.305 1387.33 633.245C1371.67 682.494 1279.17 733.293 1279.17 733.293L1172.15 851.789L1300.82 1089.92L1311.37 1109.3L1239.69 1324.23ZM1315.29 1098.91L1307.59 1084.91L1182.02 853.288L1282.89 739.701C1291.32 735.205 1374.15 687.61 1393.43 639.084L1394.77 635.312C1398.6 623.323 1398.24 612.367 1394.15 601.618C1393.64 600.791 1393.48 600.171 1393.02 599.344C1366.4 539.76 1311.31 559.966 1310.49 560.483L1309.87 560.638L1309.25 560.793L1131.42 651.332C742.758 859.954 156.32 1078.24 90.8962 1102.79C85.8835 1104.29 83.4029 1105.84 83.4029 1105.84L74.3076 1108.94L78.2352 1117.52L376.777 1782.86L380.343 1791.24L388.559 1787.1L876.964 1530.11C1025.69 1478.74 1229.04 1340.87 1242.64 1331.31L1315.29 1098.91Z" fill="#223266"/>
<path d="M852.006 1205.42C852.006 1205.42 944.819 1189.66 1024.3 1268.15L852.006 1205.42Z" fill="#395DA0"/>
<path d="M852.006 1205.42C852.006 1205.42 944.819 1189.66 1024.3 1268.15" stroke="#223266" stroke-width="10" stroke-miterlimit="10" stroke-linecap="round"/>
<path d="M793.817 915.56L132.136 1212.29L96.0137 1110.95C169.344 1083.62 749.064 867.81 1137.78 659.239L1315.61 568.7C1315.61 568.7 1364.29 549.682 1387.8 605.236C1391.73 613.814 1391.21 623.736 1388.21 632.677C1388.21 632.677 1355.55 570.405 1259.38 633.813C1162.02 696.55 793.817 915.56 793.817 915.56Z" fill="#2B437B"/>
<path opacity="0.6" d="M1019.65 1349.06C1030.02 1321.86 995.758 1283.55 943.135 1263.5C890.513 1243.46 839.452 1249.26 829.088 1276.46C818.725 1303.67 852.982 1341.97 905.605 1362.02C958.227 1382.07 1009.29 1376.27 1019.65 1349.06Z" fill="#4671B0"/>
<path d="M376.158 965.789C349.337 991.68 472.33 1490.37 694.389 1634.14L374.969 1810.36L51.8291 1097.93L391.919 958.606L376.158 965.789Z" fill="#07DFAE"/>
<path d="M371.351 958.708C401.789 1216.42 511.19 1493.93 713.198 1653.46" stroke="#07A57C" stroke-width="10" stroke-miterlimit="10" stroke-linecap="round"/>
<path opacity="0.51" d="M67.5395 1131.26C111.104 1106.51 154.668 1081.7 197.819 1056.69C226.293 1040.52 255.853 1023.46 288.771 1020.78C295.903 1020.05 302.311 1020.47 308.564 1022.79C321.173 1028.06 326.496 1042.64 330.889 1054.57C338.899 1077.98 345.513 1106.2 329.183 1124.29C322.672 1131.52 312.285 1135.86 302.983 1139.32C248.204 1160.72 192.806 1182.27 137.666 1203.46C105.213 1216.12 67.953 1234.05 62.4235 1268.57C59.8396 1285.93 65.6277 1303.87 66.1962 1321.18C66.1962 1327.84 65.7825 1334.25 67.1778 1340.25C71.0536 1355.49 88.0557 1364.48 103.869 1364.54C119.734 1364.64 134.256 1357.71 148.519 1351.2C179.37 1336.99 210.221 1322.78 240.298 1308.16C274.818 1292.14 310.786 1275.49 349.028 1272.5C357.503 1272.08 366.288 1271.93 373.781 1275.55C381.274 1279.16 386.856 1286.71 391.662 1293.84C405.615 1314.3 417.5 1336.53 426.492 1360.04C428.094 1364.12 429.645 1368.15 428.094 1372.34C426.906 1376.73 422.513 1379.68 418.224 1381.59C347.477 1421.28 274.198 1456.83 198.853 1486.55C188.465 1490.89 176.889 1495.49 171.67 1505.56C166.554 1514.66 167.484 1525.51 170.74 1535.23C176.579 1554.76 188.724 1571.5 201.126 1587.89C210.583 1599.93 220.557 1612.74 235.182 1615.64C249.806 1618.53 265 1610.52 277.454 1602.87C339.26 1566.85 405.15 1537.45 472.796 1514.3C483.906 1510.42 496.154 1507.22 507.058 1511.97C513.828 1515.12 518.582 1520.65 523.13 1526.54C538.53 1546.34 554.394 1565.41 569.794 1585.2C572.792 1588.61 575.376 1592.74 575.169 1597.24C575.066 1600.75 572.223 1603.65 569.639 1606.13C556.772 1618.63 540.7 1627.16 523.75 1633.05C460.393 1654.24 400.654 1684.42 346.082 1722.82C341.689 1725.76 336.625 1729.79 335.385 1735.12C333.628 1741.21 337.245 1747 341.276 1752.07C353.317 1768.24 369.699 1781.47 387.889 1790.2" stroke="#07A57C" stroke-width="10" stroke-miterlimit="10"/>
<path d="M1495.24 1499.93L1507.02 1519.36C1508.98 1522.25 1512.5 1524.01 1516.22 1523.39L1538.18 1518.17C1546.35 1516.36 1551.88 1525.87 1546.45 1531.97L1531.57 1549.38C1529.24 1552.12 1529.09 1556.41 1530.64 1559.15L1542.42 1578.58C1546.76 1585.56 1539.78 1593.77 1531.98 1590.93L1510.69 1581.89C1507.54 1580.34 1503.66 1581.32 1501.18 1584.47L1486.3 1601.89C1480.87 1607.99 1470.74 1603.95 1471.67 1596.15L1473.69 1573.36C1474.05 1569.64 1472.29 1566.33 1468.57 1564.99L1447.28 1555.95C1440.05 1552.9 1440.56 1541.94 1448.37 1539.98L1470.33 1534.76C1474.05 1534.14 1476.53 1531.04 1476.89 1527.32L1478.91 1504.53C1480.25 1495.95 1491.31 1493.16 1495.24 1499.93Z" fill="#07DFAE" stroke="#07A57C" stroke-width="10" stroke-miterlimit="10"/>
<path d="M1699.52 716.184L1697.86 729.466C1697.66 731.791 1698.84 733.341 1700.6 734.685L1712.69 740.628C1716.78 742.178 1715.85 749 1711.4 750.188L1697.97 752.824C1695.64 753.599 1694.09 754.788 1693.88 757.113L1692.23 770.394C1691.87 775.097 1685.46 776.286 1683.29 771.79L1676.78 760.317C1675.8 758.353 1673.47 757.217 1671.09 757.992L1657.66 760.627C1653.37 761.454 1649.85 755.821 1653.52 752.255L1662.83 742.282C1664.17 740.525 1664.58 738.768 1663.55 736.804L1657.04 725.331C1654.66 721.249 1658.95 716.546 1663.6 718.872L1675.69 724.815C1677.66 725.796 1679.78 725.383 1681.53 723.781L1690.83 713.807C1694.4 708.846 1700.09 711.12 1699.52 716.184Z" fill="#07DFAE" stroke="#07A57C" stroke-width="10" stroke-miterlimit="10"/>
<path d="M651.858 297.549L659.92 309.796C660.902 311.76 663.434 312.484 665.76 311.709L680.333 307.729C685.397 306.334 689.325 312.174 686.224 316.463L677.129 328.039C675.578 330.209 675.785 332.741 676.767 334.653L684.829 346.901C687.981 351.345 683.743 357.03 678.472 354.911L664.416 349.95C662.245 349.382 659.558 350.002 658.215 351.759L649.12 363.334C646.226 367.262 639.404 365.35 639.559 360.079L640.076 345.247C640.231 342.922 638.887 340.751 636.355 340.028L622.299 335.067C617.441 333.155 617.544 325.92 622.609 324.525L637.182 320.545C639.507 319.77 640.851 318.013 641.264 315.274L641.781 300.443C641.884 295.068 648.706 293.053 651.858 297.549Z" fill="#07DFAE" stroke="#07A57C" stroke-width="10" stroke-miterlimit="10"/>
<path d="M386.649 687.816L394.711 700.064C395.692 702.028 398.225 702.751 400.55 701.976L415.123 697.997C420.188 696.602 424.115 702.441 421.015 706.73L411.919 718.306C410.369 720.477 410.576 723.009 411.557 724.921L419.619 737.168C422.772 741.613 418.534 747.297 413.263 745.178L399.206 740.217C397.036 739.649 394.349 740.269 393.005 742.026L383.91 753.602C381.016 757.529 374.195 755.617 374.35 750.346L374.867 735.515C375.073 733.189 373.678 731.019 371.146 730.295L357.503 725.489C352.645 723.577 352.749 716.342 357.813 714.947L372.386 710.968C374.712 710.193 376.055 708.436 376.469 705.697L376.985 690.865C377.089 685.491 383.91 683.527 386.649 687.816Z" fill="#07DFAE" stroke="#07A57C" stroke-width="10" stroke-miterlimit="10"/>
<path d="M977.27 1687.93L983.471 1697.34C984.246 1698.84 986.158 1699.41 987.967 1698.79L999.181 1695.74C1003.06 1694.65 1006.11 1699.15 1003.73 1702.46L996.752 1711.34C995.564 1713 995.719 1714.96 996.494 1716.41L1002.7 1725.81C1005.12 1729.23 1001.87 1733.62 997.786 1731.96L986.985 1728.14C985.332 1727.73 983.264 1728.14 982.231 1729.54L975.254 1738.42C973.032 1741.42 967.761 1739.97 967.916 1735.94L968.278 1724.57C968.433 1722.77 967.348 1721.16 965.436 1720.54L954.945 1716.87C951.173 1715.38 951.328 1709.85 955.203 1708.81L966.417 1705.76C968.226 1705.14 969.26 1703.8 969.518 1701.68L969.88 1690.31C969.932 1686.18 975.151 1684.68 977.27 1687.93Z" fill="#07DFAE" stroke="#07A57C" stroke-width="10" stroke-miterlimit="10"/>
<path opacity="0.28" d="M1416.17 742.856H941.716C929.365 742.856 919.392 732.883 919.392 720.532C919.392 708.181 929.365 698.207 941.716 698.207H1416.17C1428.52 698.207 1438.49 708.181 1438.49 720.532C1438.49 732.831 1428.52 742.856 1416.17 742.856Z" fill="#4671B0"/>
<path opacity="0.28" d="M1416.17 859.696H941.716C929.365 859.696 919.392 849.722 919.392 837.371C919.392 825.02 929.365 815.046 941.716 815.046H1416.17C1428.52 815.046 1438.49 825.02 1438.49 837.371C1438.49 849.67 1428.52 859.696 1416.17 859.696Z" fill="#4671B0"/>
<path opacity="0.28" d="M1187.81 976.539H941.716C929.365 976.539 919.392 966.565 919.392 954.214C919.392 941.863 929.365 931.89 941.716 931.89H1187.81C1200.16 931.89 1210.13 941.863 1210.13 954.214C1210.13 966.514 1200.1 976.539 1187.81 976.539Z" fill="#4671B0"/>
<path opacity="0.28" d="M1187.81 1119.12H941.716C929.365 1119.12 919.392 1109.15 919.392 1096.8C919.392 1084.44 929.365 1074.47 941.716 1074.47H1187.81C1200.16 1074.47 1210.13 1084.44 1210.13 1096.8C1210.13 1109.15 1200.1 1119.12 1187.81 1119.12Z" fill="#4671B0"/>
<path opacity="0.55" d="M809.373 1255.08C809.373 1255.08 802.293 1372.91 907.767 1381.17C1013.24 1389.44 1149.62 1382.57 1149.62 1382.57L1185.59 1359.93L909.575 1353.68C909.575 1353.68 838.674 1345.16 817.227 1247.59L809.373 1255.08Z" fill="#2B437B"/>
<path d="M1359.17 1370.99H941.719C878.414 1370.99 827.149 1319.68 827.149 1256.42V119.569C827.149 56.2642 878.465 5 941.719 5H1359.17C1422.48 5 1473.74 56.3159 1473.74 119.569V1256.42C1473.74 1319.73 1422.42 1370.99 1359.17 1370.99Z" fill="#07DFAE" stroke="#07A57C" stroke-width="10" stroke-miterlimit="10"/>
<path d="M1331.21 1312.7H969.625C912.78 1312.7 866.735 1266.66 866.735 1209.81V160.241C866.735 103.395 912.78 57.3506 969.625 57.3506H1331.21C1388.06 57.3506 1434.1 103.395 1434.1 160.241V1209.86C1434.1 1266.66 1388.06 1312.7 1331.21 1312.7Z" fill="#D7E8F7" stroke="#223266" stroke-width="10" stroke-miterlimit="10"/>
<path d="M1253.54 550.354C1248.27 550.354 1242.59 546.168 1242.59 539.45V488.031H1220.36C1180.37 488.031 1147.86 455.474 1147.86 415.527V242.872C1147.86 202.874 1180.37 170.369 1220.36 170.369H1574.46C1614.46 170.369 1646.96 202.926 1646.96 242.872V415.527C1646.96 455.526 1614.46 488.031 1574.46 488.031H1333.02L1260.31 547.822C1258.4 549.476 1256.02 550.354 1253.54 550.354Z" fill="#4671B0"/>
<path d="M1574.51 174.037C1612.49 174.037 1643.35 204.94 1643.35 242.872V415.526C1643.35 453.509 1612.44 484.361 1574.51 484.361H1334.42H1331.78L1329.77 486.015L1258.09 544.979C1256.75 546.064 1255.25 546.632 1253.59 546.632C1250.03 546.632 1246.31 543.945 1246.31 539.398V491.648V484.309H1238.97H1220.42C1182.43 484.309 1151.58 453.406 1151.58 415.475V242.82C1151.58 204.837 1182.48 173.985 1220.42 173.985H1574.51V174.037ZM1574.51 166.699H1220.42C1178.35 166.699 1144.24 200.806 1144.24 242.872V415.526C1144.24 457.592 1178.35 491.699 1220.42 491.699H1238.97V539.449C1238.97 548.131 1246.05 554.022 1253.59 554.022C1256.75 554.022 1259.95 552.989 1262.74 550.663L1334.42 491.699H1574.51C1616.58 491.699 1650.68 457.592 1650.68 415.526V242.872C1650.74 200.806 1616.58 166.699 1574.51 166.699Z" fill="#223266"/>
<path d="M1265.43 362.404C1287.61 362.404 1305.58 344.426 1305.58 322.25C1305.58 300.074 1287.61 282.097 1265.43 282.097C1243.25 282.097 1225.28 300.074 1225.28 322.25C1225.28 344.426 1243.25 362.404 1265.43 362.404Z" fill="white" stroke="#223266" stroke-width="10" stroke-miterlimit="10"/>
<path d="M1397.47 362.404C1419.64 362.404 1437.62 344.426 1437.62 322.25C1437.62 300.074 1419.64 282.097 1397.47 282.097C1375.29 282.097 1357.31 300.074 1357.31 322.25C1357.31 344.426 1375.29 362.404 1397.47 362.404Z" fill="white" stroke="#223266" stroke-width="10" stroke-miterlimit="10"/>
<path d="M1529.55 362.404C1551.73 362.404 1569.7 344.426 1569.7 322.25C1569.7 300.074 1551.73 282.097 1529.55 282.097C1507.37 282.097 1489.4 300.074 1489.4 322.25C1489.4 344.426 1507.37 362.404 1529.55 362.404Z" fill="white" stroke="#223266" stroke-width="10" stroke-miterlimit="10"/>
<path d="M524.317 1050.96C525.196 1045.38 536.41 967.757 625.606 897.424C717.747 824.869 805.599 764.974 805.599 764.974C805.599 764.974 885.286 725.699 934.018 787.661C947.144 804.508 962.544 826.832 977.788 850.191C1018.3 912.204 1058.56 981.245 1058.56 981.245C1058.56 981.245 1092.46 1051.47 1037.06 1066.36C981.096 1081.4 939.805 1068.63 884.097 974.113C884.097 974.113 962.802 1167.96 751.079 1298.65" fill="#395DA0"/>
<path d="M524.317 1050.96C525.196 1045.38 536.41 967.757 625.606 897.424C717.747 824.869 805.599 764.974 805.599 764.974C805.599 764.974 885.286 725.699 934.018 787.661C947.144 804.508 962.544 826.832 977.788 850.191C1018.3 912.204 1058.56 981.245 1058.56 981.245C1058.56 981.245 1092.46 1051.47 1037.06 1066.36C981.096 1081.4 939.805 1068.63 884.097 974.113C884.097 974.113 962.802 1167.96 751.079 1298.65" stroke="#223266" stroke-width="10" stroke-miterlimit="10" stroke-linecap="round"/>
<path d="M580.492 1042.22L529.692 1049.72C530.364 1044.5 538.116 972.408 626.02 903.367C717.127 831.69 802.602 769.832 802.602 769.832C802.602 769.832 881.1 730.816 928.954 791.743C942.338 808.229 957.325 830.347 972.105 852.826C972.105 852.826 880.273 763.631 789.579 850.397C699.04 937.836 580.492 1042.22 580.492 1042.22Z" fill="#2B437B"/>
<path opacity="0.6" d="M802.102 1191.45C849.677 1138.47 866.036 1075.57 838.64 1050.97C811.244 1026.38 750.468 1049.39 702.893 1102.38C655.318 1155.36 638.96 1218.26 666.356 1242.86C693.752 1267.45 754.528 1244.44 802.102 1191.45Z" fill="#4671B0"/>
<path opacity="0.6" d="M1014.55 1055.78C1034.04 1055.45 1049.49 1034.11 1049.05 1008.11C1048.61 982.113 1032.46 961.303 1012.97 961.63C993.474 961.958 978.028 983.299 978.465 1009.3C978.902 1035.29 995.056 1056.1 1014.55 1055.78Z" fill="#4671B0"/>
<path d="M1336.48 1192.39C1335.86 1190.64 1320.46 1153.89 1339.79 1127.49C1358.34 1101.65 1485.06 1043.61 1490.69 1041.03L1491.88 1040.62L1493.22 1040.82C1493.64 1041.03 1507.85 1043.66 1520.35 1048.83C1526.4 1051.31 1530.9 1054.05 1533.84 1056.95C1542.26 1065.47 1555.44 1081.18 1564.49 1097.31C1570.58 1107.59 1574.15 1117.1 1575.75 1125.68L1575.96 1126.25L1576.16 1126.81C1576.58 1128 1578.13 1159.32 1562.57 1170.17L1561.8 1170.74C1532.7 1191.36 1459.89 1239.52 1416.89 1243.09C1414.16 1243.71 1411.42 1243.3 1408.88 1243.5C1364.85 1241.23 1337.67 1195.8 1336.69 1193.84L1336.48 1192.39Z" fill="#395DA0"/>
<path d="M1560.2 1099.12C1565.1 1107.85 1569.65 1117.36 1571.25 1125.94C1571.25 1125.94 1573.37 1156.12 1559.42 1165.78C1548.36 1173.43 1463.2 1233.94 1416.22 1237.56C1413.28 1237.56 1410.74 1237.77 1408.42 1237.61C1365.73 1235.54 1339.95 1190.28 1339.95 1190.28C1339.95 1190.28 1324.75 1154.1 1342.68 1129.45C1360.87 1104.39 1492.19 1044.75 1492.19 1044.75C1492.19 1044.75 1506.45 1047.39 1518.13 1052.19C1522.99 1054.11 1527.54 1056.79 1530.43 1059.74C1537.41 1066.51 1550.58 1082.22 1560.2 1099.12ZM1567.59 1094.98C1557.92 1078.08 1544.8 1062.37 1535.96 1053.69C1532.81 1050.18 1527.17 1046.92 1520.71 1044.23C1508.41 1038.65 1493.38 1036.59 1492.6 1036.22L1489.86 1035.86L1487.54 1036.64C1474.15 1043.15 1354.26 1098.24 1335.09 1124.23C1314.21 1152.81 1330.8 1192.08 1331.42 1193.79L1331.63 1194.36L1331.83 1194.93C1332.81 1196.89 1360.98 1244.23 1407.33 1246.71C1410.28 1246.71 1413.17 1246.66 1416.12 1246.66C1459.53 1243.3 1533.32 1194.15 1562.78 1173.69L1563.55 1173.12C1580.82 1160.72 1579.47 1128.99 1579.06 1125.89L1579.26 1125.47L1579.06 1124.9C1577.87 1115.55 1573.89 1105.83 1567.59 1094.98Z" fill="#223266"/>
<path d="M1416.84 1238.28C1413.9 1238.28 1411.36 1238.49 1409.04 1238.34C1382.48 1225.26 1367.08 1198.23 1367.08 1198.23C1367.08 1198.23 1351.88 1162.06 1369.81 1137.41C1387.02 1113.33 1508.26 1057.46 1518.39 1052.76C1523.25 1054.67 1527.79 1057.36 1530.69 1060.31C1540.66 1070.59 1565.98 1100.05 1572.18 1126.87C1572.18 1126.87 1574.3 1157.05 1560.35 1166.71C1548.41 1174.36 1463.4 1234.51 1416.84 1238.28Z" fill="#395DA0"/>
<path opacity="0.6" d="M1486 1194.06C1514.82 1177.61 1531.23 1152.07 1522.64 1137.02C1514.05 1121.97 1483.72 1123.12 1454.89 1139.58C1426.06 1156.03 1409.66 1181.57 1418.25 1196.62C1426.84 1211.66 1457.17 1210.52 1486 1194.06Z" fill="#4671B0"/>
<path d="M1339.95 1027.29C1339.33 1025.53 1323.93 988.788 1343.25 962.38C1361.81 936.542 1488.52 878.508 1494.15 875.924L1495.34 875.51L1496.68 875.717C1497.1 875.924 1511.31 878.559 1523.81 883.727C1529.86 886.207 1534.36 888.946 1537.3 891.84C1545.73 900.367 1558.9 916.077 1567.95 932.201C1574.05 942.484 1577.61 951.993 1579.21 960.572L1579.42 961.14L1579.63 961.709C1580.04 962.897 1581.59 994.214 1566.04 1005.07L1565.26 1005.63C1536.17 1026.25 1463.35 1074.42 1420.36 1077.98C1417.62 1078.6 1414.88 1078.19 1412.35 1078.4C1368.32 1076.12 1341.13 1030.7 1340.15 1028.73L1339.95 1027.29Z" fill="#395DA0"/>
<path d="M1563.66 934.008C1568.57 942.741 1573.11 952.25 1574.72 960.828C1574.72 960.828 1576.84 991.008 1562.88 1000.67C1551.82 1008.32 1466.66 1068.83 1419.68 1072.45C1416.74 1072.45 1414.21 1072.66 1411.88 1072.5C1369.19 1070.44 1343.41 1025.17 1343.41 1025.17C1343.41 1025.17 1328.21 988.993 1346.15 964.343C1364.34 939.279 1495.65 879.643 1495.65 879.643C1495.65 879.643 1509.91 882.279 1521.59 887.085C1526.45 888.997 1531 891.684 1533.89 894.629C1540.87 901.399 1553.99 917.109 1563.66 934.008ZM1571.05 929.874C1561.38 912.975 1548.26 897.265 1539.42 888.583C1536.27 885.069 1530.64 881.813 1524.18 879.126C1511.88 873.545 1496.84 871.478 1496.06 871.116L1493.32 870.754L1491 871.53C1477.61 878.041 1357.72 933.129 1338.55 959.123C1317.67 987.701 1334.26 1026.98 1334.88 1028.68L1335.09 1029.25L1335.29 1029.82C1336.28 1031.78 1364.44 1079.12 1410.79 1081.6C1413.74 1081.6 1416.63 1081.55 1419.58 1081.55C1462.99 1078.19 1536.79 1029.04 1566.24 1008.58L1567.02 1008.01C1584.28 995.607 1582.93 963.878 1582.52 960.777L1582.73 960.363L1582.52 959.795C1581.28 950.441 1577.35 940.726 1571.05 929.874Z" fill="#223266"/>
<path d="M1420.3 1073.18C1417.36 1073.18 1414.83 1073.39 1412.5 1073.23C1385.94 1060.16 1370.59 1033.13 1370.59 1033.13C1370.59 1033.13 1355.4 996.954 1373.33 972.304C1390.54 948.222 1511.77 892.358 1521.9 887.656C1526.76 889.568 1531.31 892.255 1534.2 895.201C1544.18 905.484 1569.5 934.941 1575.7 961.762C1575.7 961.762 1577.82 991.941 1563.87 1001.6C1551.82 1009.25 1466.87 1069.41 1420.3 1073.18Z" fill="#395DA0"/>
<path opacity="0.6" d="M1489.45 1028.94C1518.28 1012.48 1534.69 986.942 1526.1 971.896C1517.51 956.85 1487.18 957.993 1458.35 974.45C1429.52 990.907 1413.11 1016.45 1421.7 1031.49C1430.29 1046.54 1460.62 1045.39 1489.45 1028.94Z" fill="#4671B0"/>
<path d="M1327.28 866.155C1326.66 864.398 1311.26 827.655 1330.59 801.248C1349.14 775.409 1475.86 717.375 1481.49 714.791L1482.68 714.378L1484.02 714.585C1484.44 714.791 1498.65 717.427 1511.15 722.595C1517.2 725.075 1521.69 727.814 1524.64 730.708C1533.06 739.235 1546.24 754.945 1555.29 771.068C1561.38 781.352 1564.95 790.861 1566.55 799.439L1566.76 800.008L1566.96 800.576C1567.38 801.765 1568.93 833.081 1553.37 843.934L1552.6 844.502C1523.5 865.121 1450.69 913.285 1407.69 916.851C1404.96 917.471 1402.22 917.057 1399.68 917.264C1355.65 914.99 1328.47 869.566 1327.49 867.602L1327.28 866.155Z" fill="#395DA0"/>
<path d="M1551 772.826C1555.9 781.56 1560.45 791.068 1562.05 799.647C1562.05 799.647 1564.17 829.826 1550.22 839.49C1539.16 847.138 1454 907.653 1407.02 911.27C1404.08 911.27 1401.54 911.477 1399.22 911.322C1356.53 909.255 1330.75 863.985 1330.75 863.985C1330.75 863.985 1315.55 827.811 1333.48 803.161C1350.49 779.751 1466.5 726.058 1481.44 719.185C1482.47 718.72 1483.61 718.565 1484.74 718.823C1488.88 719.702 1499.73 722.13 1508.98 725.903C1513.84 727.815 1518.39 730.502 1521.28 733.448C1528.21 740.218 1541.33 755.928 1551 772.826ZM1558.39 768.692C1548.72 751.793 1535.6 736.083 1526.76 727.401C1523.61 723.887 1517.97 720.632 1511.51 717.944C1501.44 713.397 1489.6 711.175 1485.16 710.296C1483.87 710.038 1482.57 709.986 1481.28 710.089C1479.32 710.244 1477.46 710.761 1475.7 711.588C1453.74 722.027 1344.13 773.188 1325.89 797.941C1305.01 826.519 1321.6 865.794 1322.22 867.499L1322.43 868.068L1322.63 868.636C1323.61 870.6 1351.78 917.937 1398.13 920.417C1401.08 920.417 1403.97 920.366 1406.92 920.366C1450.33 917.007 1524.12 867.861 1553.58 847.397L1554.35 846.828C1571.61 834.426 1570.27 802.696 1569.86 799.595L1570.06 799.182L1569.86 798.613C1568.62 789.311 1564.69 779.596 1558.39 768.692Z" fill="#223266"/>
<path d="M1407.64 912.043C1404.7 912.043 1402.16 912.249 1399.84 912.094C1373.28 899.02 1357.88 871.993 1357.88 871.993C1357.88 871.993 1342.68 835.818 1360.61 811.168C1377.82 787.086 1499.06 731.223 1509.19 726.52C1514.05 728.432 1518.59 731.119 1521.49 734.065C1531.46 744.349 1556.78 773.805 1562.98 800.626C1562.98 800.626 1565.1 830.805 1551.15 840.469C1539.16 848.117 1454.2 908.27 1407.64 912.043Z" fill="#395DA0"/>
<path opacity="0.6" d="M1476.77 867.749C1505.6 851.292 1522.01 825.753 1513.42 810.707C1504.83 795.661 1474.5 796.805 1445.67 813.262C1416.84 829.719 1400.43 855.257 1409.02 870.303C1417.61 885.35 1447.95 884.206 1476.77 867.749Z" fill="#4671B0"/>
</svg>
