<svg width="1657" height="1603" viewBox="0 0 1657 1603" fill="none" xmlns="http://www.w3.org/2000/svg">
<path d="M1414.04 349.909C1413.42 348.152 1398.02 311.409 1417.35 285.002C1435.9 259.163 1562.62 201.129 1568.25 198.545L1569.44 198.132L1570.78 198.339C1571.19 198.545 1585.41 201.181 1597.91 206.349C1603.96 208.829 1608.45 211.568 1611.4 214.462C1619.82 222.989 1633 238.699 1642.04 254.822C1648.14 265.106 1651.71 274.615 1653.31 283.193L1653.52 283.762L1653.72 284.33C1654.14 285.519 1655.69 316.835 1640.13 327.688L1639.36 328.256C1610.26 348.875 1537.45 397.039 1494.45 400.605C1491.71 401.225 1488.98 400.811 1486.44 401.018C1442.41 398.744 1415.23 353.32 1414.25 351.356L1414.04 349.909Z" fill="#395DA0"/>
<path d="M1637.75 256.58C1642.66 265.313 1647.21 274.822 1648.81 283.4C1648.81 283.4 1650.93 313.58 1636.98 323.244C1625.92 330.892 1540.76 391.406 1493.78 395.024C1490.84 395.024 1488.3 395.231 1485.98 395.076C1443.29 393.008 1417.5 347.739 1417.5 347.739C1417.5 347.739 1402.31 311.565 1420.24 286.914C1438.43 261.851 1569.75 202.215 1569.75 202.215C1569.75 202.215 1584.01 204.85 1595.69 209.656C1600.55 211.568 1605.09 214.256 1607.99 217.201C1614.96 224.023 1628.09 239.733 1637.75 256.58ZM1645.14 252.445C1635.48 235.547 1622.35 219.837 1613.52 211.155C1610.37 207.641 1604.73 204.385 1598.27 201.698C1585.97 196.117 1570.94 194.05 1570.16 193.688L1567.42 193.326L1565.1 194.101C1551.71 200.613 1431.82 255.701 1412.65 281.695C1391.77 310.273 1408.36 349.548 1408.98 351.253L1409.18 351.821L1409.39 352.39C1410.37 354.354 1438.54 401.69 1484.89 404.171C1487.84 404.171 1490.73 404.119 1493.68 404.119C1537.09 400.76 1610.88 351.615 1640.34 331.15L1641.11 330.582C1658.37 318.179 1657.03 286.449 1656.62 283.349L1656.82 282.935L1656.62 282.367C1655.38 273.065 1651.45 263.349 1645.14 252.445Z" fill="#223266"/>
<path d="M1494.4 395.799C1491.46 395.799 1488.92 396.006 1486.6 395.851C1460.04 382.777 1444.64 355.749 1444.64 355.749C1444.64 355.749 1429.44 319.575 1447.37 294.925C1464.58 270.843 1585.82 214.98 1595.95 210.277C1600.8 212.189 1605.35 214.876 1608.25 217.822C1618.22 228.106 1643.54 257.562 1649.74 284.383C1649.74 284.383 1651.86 314.562 1637.91 324.226C1625.92 331.874 1540.91 392.027 1494.4 395.799Z" fill="#395DA0"/>
<path opacity="0.6" d="M1563.41 351.601C1592.24 335.144 1608.65 309.606 1600.06 294.56C1591.47 279.514 1561.14 280.657 1532.31 297.114C1503.48 313.572 1487.07 339.11 1495.66 354.156C1504.25 369.202 1534.59 368.058 1563.41 351.601Z" fill="#4671B0"/>
<path d="M801.095 1290.28C663.116 982.803 503.122 638.062 503.122 638.062C503.122 638.062 470.927 542.768 109.597 762.708C108.77 763.225 108.15 763.38 107.323 763.897C15.6988 805.032 16.4223 1004.87 108.719 1210.7C200.653 1416.33 349.639 1549.71 441.057 1508.98C531.338 1482.37 843.884 1384.96 801.095 1290.28Z" fill="#07DFAE" stroke="#07A57C" stroke-width="10" stroke-miterlimit="10"/>
<path d="M115.953 808.652L120.604 806.946C120.604 806.946 123.446 805.654 128.097 803.897C193.676 779.971 779.959 561.064 1169.04 352.7L1346.86 262.161C1347.69 261.644 1398.95 242.679 1424.12 298.8C1424.64 299.627 1424.79 300.247 1424.9 300.816C1428.93 310.014 1429.18 320.402 1425.77 331.616L1425.21 333.321C1407.84 382.001 1322.26 429.958 1315.86 433.679L1212.03 549.54L1348.26 801.107L1277.3 1018.93C1267.48 1025.65 1058.5 1168.48 908.584 1220.11L410.722 1480L115.953 808.652Z" fill="#395DA0"/>
<path d="M1273.79 1021.46C1273.79 1021.46 1062.43 1167.24 908.688 1220.11L420.077 1477.51L121.793 811.802C121.793 811.802 124.636 810.51 129.287 808.753C202.617 781.416 782.337 565.61 1171.06 357.039L1348.88 266.5C1348.88 266.5 1396.37 247.741 1420.25 301.021C1420.76 301.848 1420.5 302.209 1421.02 303.036C1424.95 311.615 1424.43 321.537 1421.43 330.477C1405.78 379.726 1313.27 430.525 1313.27 430.525L1206.25 549.022L1334.93 787.152L1345.47 806.531L1273.79 1021.46ZM1349.4 796.092L1341.7 782.088L1216.17 550.469L1317.04 436.881C1325.47 432.385 1408.31 384.79 1427.58 336.265L1428.93 332.493C1432.75 320.503 1432.39 309.548 1428.31 298.799C1427.79 297.972 1427.63 297.352 1427.12 296.525C1400.5 236.941 1345.42 257.147 1344.59 257.663L1343.97 257.818L1343.35 257.973L1165.53 348.513C776.859 557.135 190.421 775.421 124.997 799.968C119.985 801.467 117.504 803.017 117.504 803.017L108.409 806.118L112.336 814.696L410.878 1480.05L414.444 1488.42L422.661 1484.28L911.066 1227.29C1059.79 1175.92 1263.15 1038.05 1276.74 1028.49L1349.4 796.092Z" fill="#223266"/>
<path d="M886.105 902.603C886.105 902.603 978.918 886.841 1058.4 965.339L886.105 902.603Z" fill="#395DA0"/>
<path d="M886.105 902.603C886.105 902.603 978.918 886.841 1058.4 965.339" stroke="#223266" stroke-width="10" stroke-miterlimit="10" stroke-linecap="round"/>
<path d="M827.915 612.793L166.235 909.526L130.113 808.186C203.443 780.849 783.162 565.043 1171.88 356.472L1349.7 265.933C1349.7 265.933 1398.38 246.916 1421.9 302.469C1425.83 311.048 1425.31 320.97 1422.31 329.91C1422.31 329.91 1389.65 267.638 1293.48 331.047C1196.12 393.732 827.915 612.793 827.915 612.793Z" fill="#2B437B"/>
<path opacity="0.6" d="M1053.65 1046.3C1064.01 1019.1 1029.75 980.794 977.129 960.747C924.507 940.701 873.446 946.504 863.083 973.708C852.719 1000.91 886.976 1039.22 939.599 1059.26C992.222 1079.31 1043.28 1073.51 1053.65 1046.3Z" fill="#4671B0"/>
<path d="M410.258 663.023C383.437 688.913 506.43 1187.6 728.488 1331.37L409.069 1507.59L85.8772 795.162L425.968 655.839L410.258 663.023Z" fill="#07DFAE"/>
<path d="M405.451 655.945C435.89 913.661 545.291 1191.17 747.299 1350.7" stroke="#07A57C" stroke-width="10" stroke-miterlimit="10" stroke-linecap="round"/>
<path opacity="0.51" d="M101.639 828.496C145.203 803.742 188.767 778.937 231.918 753.925C260.392 737.75 289.952 720.696 322.871 718.009C330.002 717.286 336.41 717.699 342.663 720.025C355.272 725.296 360.595 739.869 364.988 751.806C372.998 775.216 379.613 803.432 363.282 821.519C356.771 828.754 346.384 833.095 337.082 836.558C282.304 857.952 226.905 879.502 171.765 900.69C139.312 913.351 102.052 931.283 96.5227 965.803C93.9388 983.167 99.7266 1001.1 100.295 1018.41C100.295 1025.08 99.8817 1031.49 101.277 1037.48C105.153 1052.73 122.155 1061.72 137.968 1061.77C153.833 1061.87 168.354 1054.95 182.617 1048.44C213.469 1034.22 244.321 1020.01 274.397 1005.39C308.918 989.368 344.885 972.728 383.127 969.731C391.602 969.317 400.387 969.162 407.88 972.78C415.373 976.397 420.955 983.942 425.761 991.074C439.714 1011.54 451.599 1033.76 460.591 1057.27C462.193 1061.36 463.744 1065.39 462.193 1069.57C461.005 1073.96 456.612 1076.91 452.323 1078.82C381.576 1118.51 308.297 1154.06 232.952 1183.78C222.564 1188.12 210.989 1192.72 205.769 1202.8C200.653 1211.89 201.583 1222.74 204.839 1232.46C210.678 1251.99 222.823 1268.74 235.225 1285.12C244.682 1297.16 254.656 1309.98 269.281 1312.87C283.906 1315.76 299.099 1307.75 311.553 1300.11C373.36 1264.09 439.248 1234.68 506.894 1211.53C518.005 1207.65 530.253 1204.45 541.157 1209.2C547.927 1212.36 552.681 1217.89 557.228 1223.78C572.628 1243.57 588.493 1262.64 603.893 1282.43C606.891 1285.84 609.475 1289.98 609.268 1294.47C609.165 1297.99 606.322 1300.88 603.738 1303.36C590.871 1315.87 574.799 1324.39 557.849 1330.29C494.492 1351.47 434.753 1381.65 380.181 1420.05C375.788 1423 370.724 1427.03 369.484 1432.35C367.727 1438.45 371.344 1444.23 375.375 1449.3C387.416 1465.47 403.798 1478.7 421.988 1487.44" stroke="#07A57C" stroke-width="10" stroke-miterlimit="10"/>
<path d="M1245.83 1465.68L1257.61 1485.11C1259.58 1488 1263.09 1489.76 1266.81 1489.14L1288.78 1483.92C1296.94 1482.11 1302.47 1491.62 1297.04 1497.72L1282.16 1515.14C1279.84 1517.87 1279.68 1522.16 1281.23 1524.9L1293.01 1544.33C1297.35 1551.31 1290.38 1559.53 1282.57 1556.68L1261.28 1547.64C1258.13 1546.09 1254.26 1547.07 1251.78 1550.22L1236.89 1567.64C1231.47 1573.74 1221.34 1569.66 1222.27 1561.9L1224.28 1539.11C1224.64 1535.39 1222.89 1532.09 1219.17 1530.74L1197.88 1521.7C1190.64 1518.65 1191.16 1507.69 1198.96 1505.73L1220.92 1500.51C1224.64 1499.89 1227.12 1496.79 1227.49 1493.07L1229.5 1470.28C1230.79 1461.7 1241.9 1458.91 1245.83 1465.68Z" fill="#07DFAE" stroke="#07A57C" stroke-width="10" stroke-miterlimit="10"/>
<path d="M1509.08 1139.49L1507.42 1152.77C1507.22 1155.1 1508.41 1156.65 1510.16 1157.99L1522.25 1163.94C1526.34 1165.49 1525.41 1172.31 1520.96 1173.5L1507.53 1176.13C1505.2 1176.91 1503.65 1178.1 1503.44 1180.42L1501.79 1193.7C1501.43 1198.41 1495.02 1199.59 1492.85 1195.1L1486.34 1183.63C1485.36 1181.66 1483.03 1180.52 1480.65 1181.3L1467.22 1183.94C1462.93 1184.76 1459.42 1179.13 1463.08 1175.56L1472.39 1165.59C1473.73 1163.83 1474.14 1162.08 1473.11 1160.11L1466.6 1148.64C1464.22 1144.56 1468.51 1139.85 1473.16 1142.18L1485.25 1148.12C1487.22 1149.1 1489.34 1148.69 1491.09 1147.09L1500.4 1137.12C1503.96 1132.1 1509.59 1134.43 1509.08 1139.49Z" fill="#07DFAE" stroke="#07A57C" stroke-width="10" stroke-miterlimit="10"/>
<path d="M520.487 352.855L528.548 365.103C529.53 367.067 532.063 367.79 534.388 367.015L548.961 363.036C554.025 361.641 557.953 367.48 554.852 371.769L545.757 383.345C544.207 385.516 544.413 388.048 545.395 389.96L553.457 402.208C556.609 406.652 552.372 412.336 547.049 410.218L532.993 405.256C530.822 404.688 528.135 405.308 526.791 407.065L517.696 418.641C514.802 422.568 507.981 420.656 508.136 415.385L508.653 400.554C508.859 398.228 507.464 396.058 504.932 395.334L490.875 390.373C486.018 388.461 486.121 381.226 491.186 379.831L505.759 375.852C508.084 375.077 509.428 373.32 509.841 370.581L510.358 355.749C510.513 350.375 517.334 348.411 520.487 352.855Z" fill="#07DFAE" stroke="#07A57C" stroke-width="10" stroke-miterlimit="10"/>
<path d="M37.7135 457.76L45.7752 470.008C46.7571 471.972 49.2893 472.695 51.6148 471.92L66.1879 467.941C71.2523 466.545 75.1798 472.385 72.0792 476.674L62.9839 488.25C61.4336 490.42 61.6403 492.953 62.6221 494.865L70.6838 507.112C73.8362 511.557 69.5986 517.241 64.3275 515.122L50.2712 510.161C48.1007 509.593 45.4135 510.213 44.0699 511.97L34.9746 523.546C32.0807 527.473 25.2592 525.561 25.4142 520.29L25.9311 505.459C26.0861 503.133 24.7425 500.963 22.2103 500.239L8.56738 495.433C3.70968 493.521 3.81302 486.286 8.87743 484.891L23.4505 480.912C25.776 480.137 27.1196 478.38 27.533 475.641L28.0498 460.809C28.1532 455.486 34.923 453.471 37.7135 457.76Z" fill="#07DFAE" stroke="#07A57C" stroke-width="10" stroke-miterlimit="10"/>
<path d="M660.739 1545.47L666.94 1554.88C667.715 1556.37 669.627 1556.94 671.436 1556.32L682.65 1553.27C686.526 1552.19 689.575 1556.68 687.197 1559.99L680.221 1568.88C679.032 1570.53 679.187 1572.5 679.963 1573.95L686.164 1583.35C688.593 1586.76 685.337 1591.15 681.255 1589.5L670.454 1585.68C668.8 1585.26 666.733 1585.68 665.7 1587.07L658.723 1595.96C656.501 1598.96 651.23 1597.51 651.385 1593.48L651.747 1582.11C651.902 1580.3 650.817 1578.7 648.904 1578.08L638.414 1574.41C634.641 1572.91 634.796 1567.38 638.672 1566.35L649.886 1563.3C651.695 1562.68 652.729 1561.34 652.987 1559.22L653.349 1547.85C653.4 1543.71 658.62 1542.22 660.739 1545.47Z" fill="#07DFAE" stroke="#07A57C" stroke-width="10" stroke-miterlimit="10"/>
<path d="M1424.95 1054.64H991.114C916.698 1054.64 856.39 994.331 856.39 919.915V263.093C856.39 120.721 971.786 5.27295 1114.21 5.27295H1424.95C1499.36 5.27295 1559.67 65.5807 1559.67 139.996V919.915C1559.72 994.279 1499.36 1054.64 1424.95 1054.64Z" fill="#D7E8F7" stroke="#223266" stroke-width="10" stroke-miterlimit="10"/>
<path d="M856.081 258.078V257.923C856.081 119.737 967.55 7.07955 1105.32 5.16748V79.5832C1105.32 178.029 1025.22 258.078 926.828 258.078H856.081Z" fill="#4671B0"/>
<path d="M1100.15 10.4389V79.5318C1100.15 175.135 1022.38 252.859 926.828 252.859H861.301C863.885 121.597 969.307 14.9865 1100.15 10.4389ZM1108.84 0C966.361 0 850.914 115.499 850.914 257.923V261.592C850.914 262.522 851.637 263.246 852.567 263.246H926.828C1028.27 263.246 1110.49 181.027 1110.49 79.5835V1.60199C1110.49 0.723474 1109.77 0 1108.84 0Z" fill="#223266"/>
<path opacity="0.28" d="M1450.27 440.034H975.816C963.465 440.034 953.491 430.06 953.491 417.709C953.491 405.358 963.465 395.384 975.816 395.384H1450.27C1462.62 395.384 1472.59 405.358 1472.59 417.709C1472.59 430.06 1462.57 440.034 1450.27 440.034Z" fill="#4671B0"/>
<path opacity="0.28" d="M1450.27 556.88H975.816C963.465 556.88 953.491 546.906 953.491 534.555C953.491 522.204 963.465 512.23 975.816 512.23H1450.27C1462.62 512.23 1472.59 522.204 1472.59 534.555C1472.59 546.906 1462.57 556.88 1450.27 556.88Z" fill="#4671B0"/>
<path opacity="0.28" d="M1221.85 673.719H975.816C963.465 673.719 953.491 663.746 953.491 651.395C953.491 639.044 963.465 629.07 975.816 629.07H1221.9C1234.26 629.07 1244.23 639.044 1244.23 651.395C1244.18 663.746 1234.2 673.719 1221.85 673.719Z" fill="#4671B0"/>
<path opacity="0.28" d="M1221.85 816.351H975.816C963.465 816.351 953.491 806.377 953.491 794.026C953.491 781.675 963.465 771.701 975.816 771.701H1221.9C1234.26 771.701 1244.23 781.675 1244.23 794.026C1244.18 806.325 1234.2 816.351 1221.85 816.351Z" fill="#4671B0"/>
<path opacity="0.28" d="M1417.76 263.246H1350.43C1322.16 263.246 1299.27 240.353 1299.27 212.086V144.75C1299.27 116.482 1322.16 93.5889 1350.43 93.5889H1417.76C1446.03 93.5889 1468.92 116.482 1468.92 144.75V212.086C1468.87 240.353 1445.98 263.246 1417.76 263.246Z" fill="#4671B0"/>
<path d="M797.943 224.796L741.097 270.893C728.126 281.383 726.163 300.401 736.653 313.372L1090.18 749.686C1097.16 758.264 1106.46 764.569 1117 767.876L1199.48 793.509C1207.49 795.989 1215.39 789.529 1214.57 781.209L1205.16 685.761C1204.7 681.006 1202.84 676.562 1199.84 672.841L840.422 229.292C829.88 216.27 810.914 214.306 797.943 224.796Z" fill="#07DFAE" stroke="#07A57C" stroke-width="10" stroke-miterlimit="10"/>
<path d="M558.416 748.188C559.295 742.607 570.509 664.987 659.704 594.654C751.845 522.099 839.697 462.204 839.697 462.204C839.697 462.204 919.384 422.929 968.116 484.891C981.242 501.738 996.642 524.062 1011.89 547.421C1052.4 609.434 1092.66 678.475 1092.66 678.475C1092.66 678.475 1126.56 748.705 1071.16 763.588C1015.19 778.626 973.904 765.862 918.196 671.343C918.196 671.343 996.9 865.186 785.177 995.879" fill="#395DA0"/>
<path d="M558.416 748.188C559.295 742.607 570.509 664.987 659.704 594.654C751.845 522.099 839.697 462.204 839.697 462.204C839.697 462.204 919.384 422.929 968.116 484.891C981.242 501.738 996.642 524.062 1011.89 547.421C1052.4 609.434 1092.66 678.475 1092.66 678.475C1092.66 678.475 1126.56 748.705 1071.16 763.588C1015.19 778.626 973.904 765.862 918.196 671.343C918.196 671.343 996.9 865.186 785.177 995.879" stroke="#223266" stroke-width="10" stroke-miterlimit="10" stroke-linecap="round"/>
<path d="M614.59 739.455L563.791 746.948C564.463 741.729 572.214 669.638 660.118 600.597C751.226 528.92 836.7 467.062 836.7 467.062C836.7 467.062 915.199 428.045 963.052 488.973C976.437 505.459 991.423 527.577 1006.2 550.056C1006.2 550.056 914.372 460.861 823.678 547.627C733.138 635.014 614.59 739.455 614.59 739.455Z" fill="#2B437B"/>
<path opacity="0.6" d="M836.165 888.694C883.74 835.707 900.098 772.812 872.702 748.214C845.306 723.617 784.53 746.63 736.955 799.617C689.381 852.604 673.022 915.499 700.418 940.096C727.814 964.694 788.59 941.681 836.165 888.694Z" fill="#4671B0"/>
<path opacity="0.6" d="M1048.54 752.906C1068.03 752.578 1083.48 731.237 1083.04 705.239C1082.61 679.241 1066.45 658.431 1046.96 658.759C1027.47 659.086 1012.02 680.427 1012.46 706.425C1012.9 732.423 1029.05 753.233 1048.54 752.906Z" fill="#4671B0"/>
<path d="M1392.39 867.82C1391.77 866.063 1376.37 829.32 1395.7 802.913C1414.25 777.074 1540.97 719.04 1546.6 716.456L1547.79 716.043L1549.13 716.25C1549.54 716.456 1563.76 719.092 1576.26 724.26C1582.31 726.74 1586.8 729.479 1589.75 732.373C1598.17 740.9 1611.35 756.61 1620.39 772.733C1626.49 783.017 1630.06 792.526 1631.66 801.104L1631.87 801.673L1632.07 802.241C1632.49 803.43 1634.04 834.746 1618.48 845.599L1617.71 846.167C1588.61 866.787 1515.8 914.95 1472.8 918.516C1470.06 919.136 1467.32 918.723 1464.79 918.929C1420.76 916.655 1393.58 871.231 1392.6 869.267L1392.39 867.82Z" fill="#395DA0"/>
<path d="M1616.1 774.543C1621.01 783.277 1625.56 792.786 1627.16 801.364C1627.16 801.364 1629.28 831.544 1615.33 841.208C1604.27 848.856 1519.1 909.37 1472.13 912.988C1469.18 912.988 1466.65 913.194 1464.33 913.039C1421.64 910.972 1395.85 865.703 1395.85 865.703C1395.85 865.703 1380.66 829.528 1398.59 804.878C1416.78 779.815 1548.1 720.179 1548.1 720.179C1548.1 720.179 1562.36 722.814 1574.04 727.62C1578.89 729.532 1583.44 732.219 1586.34 735.165C1593.26 741.935 1606.44 757.645 1616.1 774.543ZM1623.44 770.409C1613.78 753.511 1600.65 737.801 1591.81 729.119C1588.66 725.605 1583.03 722.349 1576.57 719.662C1564.27 714.081 1549.23 712.014 1548.46 711.652L1545.72 711.29L1543.39 712.065C1530.01 718.577 1410.12 773.665 1390.94 799.659C1370.07 828.236 1386.65 867.511 1387.27 869.217L1387.48 869.785L1387.69 870.354C1388.67 872.317 1416.83 919.654 1463.19 922.135C1466.13 922.135 1469.03 922.083 1471.97 922.083C1515.38 918.724 1589.18 869.579 1618.64 849.114L1619.41 848.546C1636.67 836.143 1635.33 804.413 1634.91 801.312L1635.12 800.899L1634.91 800.331C1633.72 790.977 1629.75 781.262 1623.44 770.409Z" fill="#223266"/>
<path d="M1472.7 913.711C1469.75 913.711 1467.22 913.918 1464.89 913.763C1438.33 900.688 1422.93 873.661 1422.93 873.661C1422.93 873.661 1407.74 837.487 1425.67 812.836C1442.88 788.755 1564.11 732.891 1574.24 728.188C1579.1 730.101 1583.65 732.788 1586.54 735.733C1596.52 746.017 1621.84 775.473 1628.04 802.294C1628.04 802.294 1630.16 832.474 1616.21 842.138C1604.27 849.838 1519.26 909.939 1472.7 913.711Z" fill="#395DA0"/>
<path opacity="0.6" d="M1541.72 869.555C1570.55 853.098 1586.96 827.56 1578.37 812.514C1569.78 797.468 1539.44 798.612 1510.62 815.069C1481.79 831.526 1465.38 857.064 1473.97 872.11C1482.56 887.156 1512.89 886.012 1541.72 869.555Z" fill="#4671B0"/>
<path d="M1395.8 702.712C1395.18 700.955 1379.78 664.212 1399.11 637.805C1417.66 611.966 1544.37 553.932 1550.01 551.348L1551.2 550.935L1552.54 551.141C1552.95 551.348 1567.16 553.984 1579.67 559.151C1585.72 561.632 1590.21 564.371 1593.16 567.265C1601.58 575.792 1614.76 591.501 1623.8 607.625C1629.9 617.909 1633.47 627.417 1635.07 635.996L1635.28 636.564L1635.48 637.133C1635.9 638.321 1637.45 669.638 1621.89 680.49L1621.12 681.059C1592.02 701.678 1519.21 749.842 1476.21 753.407C1473.47 754.028 1470.73 753.614 1468.2 753.821C1424.17 751.547 1396.99 706.122 1396.01 704.159L1395.8 702.712Z" fill="#395DA0"/>
<path d="M1619.51 609.435C1624.42 618.169 1628.97 627.677 1630.57 636.256C1630.57 636.256 1632.69 666.435 1618.74 676.099C1607.68 683.747 1522.51 744.262 1475.54 747.879C1472.59 747.879 1470.06 748.086 1467.74 747.931C1425.05 745.864 1399.26 700.594 1399.26 700.594C1399.26 700.594 1384.07 664.42 1402 639.77C1420.19 614.706 1551.51 555.07 1551.51 555.07C1551.51 555.07 1565.77 557.706 1577.45 562.512C1582.31 564.424 1586.85 567.111 1589.75 570.057C1596.72 576.826 1609.85 592.536 1619.51 609.435ZM1626.9 605.301C1617.24 588.402 1604.11 572.692 1595.28 564.01C1592.12 560.496 1586.49 557.241 1580.03 554.553C1567.73 548.972 1552.69 546.905 1551.92 546.543L1549.18 546.182L1546.85 546.957C1533.47 553.468 1413.58 608.556 1394.41 634.55C1373.53 663.128 1390.12 702.403 1390.74 704.108L1390.94 704.677L1391.15 705.245C1392.13 707.209 1420.3 754.546 1466.65 757.026C1469.6 757.026 1472.49 756.975 1475.44 756.975C1518.85 753.616 1592.64 704.47 1622.1 684.006L1622.87 683.437C1640.13 671.035 1638.79 639.305 1638.38 636.204L1638.58 635.791L1638.38 635.222C1637.14 625.868 1633.21 616.153 1626.9 605.301Z" fill="#223266"/>
<path d="M1476.16 748.603C1473.21 748.603 1470.68 748.809 1468.36 748.654C1441.79 735.58 1426.39 708.553 1426.39 708.553C1426.39 708.553 1411.2 672.378 1429.13 647.728C1446.34 623.646 1567.58 567.783 1577.71 563.08C1582.56 564.992 1587.11 567.679 1590.01 570.625C1599.98 580.909 1625.3 610.365 1631.5 637.186C1631.5 637.186 1633.62 667.365 1619.67 677.029C1607.68 684.677 1522.72 744.83 1476.16 748.603Z" fill="#395DA0"/>
<path opacity="0.6" d="M1545.18 704.424C1574 687.967 1590.41 662.429 1581.82 647.383C1573.23 632.336 1542.9 633.48 1514.07 649.937C1485.24 666.394 1468.84 691.933 1477.43 706.979C1486.02 722.025 1516.35 720.881 1545.18 704.424Z" fill="#4671B0"/>
<path d="M1383.14 541.579C1382.52 539.822 1367.12 503.079 1386.45 476.672C1405 450.833 1531.71 392.799 1537.35 390.215L1538.53 389.802L1539.88 390.008C1540.29 390.215 1554.5 392.851 1567.01 398.018C1573.05 400.499 1577.55 403.238 1580.5 406.132C1588.92 414.659 1602.1 430.369 1611.14 446.492C1617.24 456.776 1620.8 466.285 1622.41 474.863L1622.61 475.432L1622.82 476C1623.23 477.189 1624.78 508.505 1609.23 519.357L1608.45 519.926C1579.36 540.545 1506.55 588.709 1463.55 592.275C1460.81 592.895 1458.07 592.481 1455.54 592.688C1411.51 590.414 1384.33 544.99 1383.35 543.026L1383.14 541.579Z" fill="#395DA0"/>
<path d="M1606.85 448.25C1611.76 456.984 1616.31 466.493 1617.91 475.071C1617.91 475.071 1620.03 505.251 1606.08 514.914C1595.02 522.563 1509.85 583.077 1462.88 586.695C1459.93 586.695 1457.4 586.901 1455.07 586.746C1412.39 584.679 1386.6 539.41 1386.6 539.41C1386.6 539.41 1371.41 503.235 1389.34 478.585C1406.34 455.175 1522.36 401.482 1537.29 394.609C1538.33 394.144 1539.46 393.989 1540.6 394.247C1544.73 395.126 1555.59 397.555 1564.84 401.327C1569.7 403.239 1574.24 405.926 1577.14 408.872C1584.06 415.642 1597.19 431.352 1606.85 448.25ZM1614.24 444.116C1604.58 427.218 1591.45 411.508 1582.61 402.826C1579.46 399.312 1573.83 396.056 1567.37 393.369C1557.29 388.821 1545.46 386.599 1541.01 385.72C1539.72 385.462 1538.43 385.41 1537.14 385.514C1535.17 385.669 1533.31 386.186 1531.56 387.012C1509.59 397.451 1399.99 448.612 1381.74 473.366C1360.87 501.943 1377.45 541.218 1378.07 542.924L1378.28 543.492L1378.49 544.061C1379.47 546.024 1407.63 593.361 1453.99 595.842C1456.93 595.842 1459.83 595.79 1462.77 595.79C1506.18 592.431 1579.98 543.285 1609.44 522.821L1610.21 522.253C1627.47 509.85 1626.13 478.12 1625.71 475.019L1625.92 474.606L1625.71 474.037C1624.47 464.736 1620.55 455.02 1614.24 444.116Z" fill="#223266"/>
<path d="M1463.5 587.47C1460.55 587.47 1458.02 587.677 1455.69 587.522C1429.13 574.447 1413.73 547.42 1413.73 547.42C1413.73 547.42 1398.54 511.245 1416.47 486.595C1433.68 462.513 1554.92 406.65 1565.04 401.947C1569.9 403.859 1574.45 406.547 1577.34 409.492C1587.32 419.776 1612.64 449.232 1618.84 476.053C1618.84 476.053 1620.96 506.233 1607.01 515.896C1595.02 523.545 1510.06 583.697 1463.5 587.47Z" fill="#395DA0"/>
<path opacity="0.6" d="M1532.52 543.285C1561.35 526.828 1577.76 501.289 1569.17 486.243C1560.58 471.197 1530.24 472.341 1501.42 488.798C1472.59 505.255 1456.18 530.793 1464.77 545.84C1473.36 560.886 1503.69 559.742 1532.52 543.285Z" fill="#4671B0"/>
<path opacity="0.55" d="M843.419 952.265C843.419 952.265 836.339 1070.09 941.813 1078.36C1047.29 1086.63 1183.66 1079.75 1183.66 1079.75L1219.63 1057.12L943.622 1050.87C943.622 1050.87 872.72 1042.34 851.274 944.772L843.419 952.265Z" fill="#2B437B"/>
</svg>
