<svg width="2027" height="2189" viewBox="0 0 2027 2189" fill="none" xmlns="http://www.w3.org/2000/svg">
<path d="M1843.98 963.199L1859.41 982.963C1861.82 985.855 1866.15 987.301 1870.01 985.855L1893.63 977.178C1902.31 974.286 1909.54 983.927 1904.72 991.157L1890.74 1012.37C1888.33 1015.26 1888.81 1020.08 1891.22 1023.45L1906.64 1043.22C1911.95 1050.45 1905.68 1060.09 1897 1058.16L1872.42 1050.93C1868.56 1049.97 1864.71 1051.41 1862.3 1054.79L1848.32 1076C1843.5 1083.23 1831.45 1080.33 1831.45 1071.18L1830.48 1046.11C1830.48 1042.25 1827.59 1038.88 1823.73 1037.43L1799.15 1030.2C1790.47 1027.79 1789.99 1015.74 1798.19 1012.85L1821.81 1004.17C1825.66 1003.21 1828.07 999.352 1828.07 995.014L1827.11 969.948C1827.11 960.789 1838.68 956.451 1843.98 963.199Z" fill="#07DFAE" stroke="#07A57C" stroke-width="12" stroke-miterlimit="10"/>
<path d="M172.275 1493.44L187.701 1513.2C190.111 1516.1 194.449 1517.54 198.305 1516.1L221.925 1507.42C230.602 1504.53 237.832 1514.17 233.012 1521.4L219.033 1542.61C216.623 1545.5 217.105 1550.32 219.515 1553.69L234.94 1573.46C240.243 1580.69 233.976 1590.33 225.299 1588.4L200.716 1581.17C196.859 1580.21 193.003 1581.65 190.593 1585.03L176.614 1606.24C171.793 1613.47 159.742 1610.57 159.742 1601.42L158.778 1576.35C158.778 1572.49 155.886 1569.12 152.03 1567.67L127.446 1560.44C118.769 1558.03 118.287 1545.98 126.482 1543.09L150.102 1534.41C153.958 1533.45 156.368 1529.59 156.368 1525.25L155.404 1500.19C155.404 1490.55 166.973 1486.21 172.275 1493.44Z" fill="#07DFAE" stroke="#07A57C" stroke-width="12" stroke-miterlimit="10"/>
<path d="M1054.4 1760.97C1334.95 1514.65 1654.54 1241.82 1654.54 1241.82C1654.54 1241.82 1730.7 1160.83 1993.41 1547.91C1993.89 1548.87 1994.86 1549.36 1995.34 1550.32C2068.61 1633.71 1976.06 1834.72 1788.55 1999.58C1601.03 2163.95 1390.38 2229.99 1316.63 2146.6C1238.06 2078.63 968.118 1837.13 1054.4 1760.97Z" fill="#07DFAE" stroke="#07A57C" stroke-width="12" stroke-miterlimit="10"/>
<path d="M1965.45 1591.78L1961.6 1587.92C1961.6 1587.92 1959.19 1585.51 1955.33 1581.17C1900.38 1526.7 1478.11 1113.11 1182.62 724.109L982.579 826.301L729.51 1016.71L727.582 1113.11C725.172 1111.67 675.04 1079.85 638.887 1111.67C636.959 1113.11 635.031 1115.04 633.584 1116.97C596.95 1157.46 676.004 1235.55 679.378 1238.92L698.659 1275.08C705.408 1286.65 848.091 1522.36 974.867 1643.35L1351.34 2130.69L1965.45 1591.78Z" fill="#395DA0"/>
<path d="M642.261 1116.01C640.815 1117.45 638.887 1118.9 637.441 1120.83C603.698 1158.43 682.752 1236.03 682.752 1236.03L702.516 1273.15C702.516 1273.15 848.091 1517.06 978.241 1640.94L1351.34 2124.43L1958.22 1592.74C1958.22 1592.74 1955.81 1590.33 1951.96 1585.99C1890.74 1524.77 1473.78 1116.97 1178.29 727.966L987.882 828.23L748.792 1008.51L729.028 1023.46L724.208 1117.45C724.208 1117.93 676.004 1086.12 642.261 1116.01ZM635.995 1108.78C652.384 1094.31 674.076 1089.98 699.142 1096.24C716.977 1100.58 729.51 1109.26 730.956 1109.74L731.438 1110.22L731.92 1110.7L731.438 1011.89L745.417 1001.76L978.241 826.302L1188.41 722.664C1483.42 1111.67 1906.16 1524.77 1961.11 1579.24C1965.45 1583.1 1967.38 1585.99 1967.38 1585.99L1975.09 1593.22L1966.9 1600.45L1360.5 2132.62L1352.78 2139.37L1346.52 2131.66L972.939 1647.69C846.645 1527.67 705.89 1295.32 696.25 1279.42L677.45 1243.26C675.04 1240.85 656.24 1222.05 640.815 1198.43C624.908 1173.37 609.965 1139.14 631.657 1115.04C632.139 1112.15 634.067 1110.7 635.995 1108.78Z" fill="#223266"/>
<path d="M1147.92 1332.44C1147.92 1332.44 1062.12 1274.11 945.944 1316.05L1147.92 1332.44Z" fill="#395DA0"/>
<path d="M1147.92 1332.44C1147.92 1332.44 1062.12 1274.11 945.944 1316.05" stroke="#223266" stroke-width="12" stroke-miterlimit="10" stroke-linecap="round"/>
<path d="M1339.77 1067.32L1869.05 1670.35L1951.96 1585.03C1890.74 1523.81 1473.78 1116.01 1178.29 727.002L1339.77 1067.32Z" fill="#2B437B"/>
<path opacity="0.6" d="M1138.01 1414.49C1140.1 1382.35 1091.4 1353.01 1029.23 1348.96C967.07 1344.91 914.978 1367.69 912.885 1399.83C910.793 1431.98 959.491 1461.32 1021.66 1465.37C1083.82 1469.41 1135.91 1446.64 1138.01 1414.49Z" fill="#4671B0"/>
<path d="M1736.97 1309.78C1752.39 1348.35 1398.58 1793.27 1108.87 1835.69L1349.41 2160.1L2002.57 1591.78L1724.43 1295.32L1736.97 1309.78Z" fill="#07DFAE"/>
<path d="M1744.68 1305.45C1595.73 1550.32 1358.09 1779.77 1081.4 1847.26" stroke="#07A57C" stroke-width="12" stroke-miterlimit="10" stroke-linecap="round"/>
<path opacity="0.51" d="M1971.24 1618.77C1938.94 1573.94 1906.16 1528.63 1874.35 1483.8C1853.14 1454.4 1830.96 1423.54 1799.63 1405.71C1792.88 1401.85 1786.14 1398.96 1778.42 1398.48C1763.48 1398 1751.43 1410.05 1741.31 1420.17C1722.51 1439.93 1702.74 1465.48 1710.94 1491.03C1714.31 1501.63 1722.51 1510.31 1730.22 1518.02C1775.53 1564.78 1821.32 1611.54 1867.12 1658.3C1894.11 1685.77 1923.03 1721.44 1912.91 1758.56C1907.61 1777.36 1893.15 1792.3 1884.47 1809.66C1881.1 1816.4 1878.69 1823.15 1874.83 1828.46C1864.23 1841.95 1843.02 1842.92 1826.63 1835.69C1810.72 1828.46 1799.15 1814.96 1788.06 1801.94C1763.48 1773.5 1739.38 1744.58 1715.28 1716.14C1687.8 1683.84 1659.36 1651.07 1622.72 1630.34C1614.53 1626 1605.37 1621.66 1596.21 1622.14C1587.05 1622.63 1577.9 1626.96 1569.7 1632.27C1546.08 1646.25 1523.91 1663.6 1504.14 1682.88C1500.29 1686.25 1497.4 1689.63 1496.91 1694.45C1496.43 1699.75 1499.32 1704.57 1502.7 1707.95C1555.24 1780.25 1613.08 1849.67 1675.27 1914.74C1683.94 1923.9 1693.1 1933.54 1694.07 1946.55C1695.03 1958.12 1688.76 1968.25 1681.53 1976.92C1666.59 1993.79 1646.34 2004.88 1626.58 2015.97C1611.64 2023.68 1595.73 2031.88 1579.82 2028.5C1563.43 2024.64 1552.35 2009.7 1543.19 1996.2C1497.39 1931.61 1444.85 1871.84 1387.49 1817.37C1378.33 1808.21 1367.24 1799.53 1354.23 1799.05C1346.04 1799.05 1338.8 1802.43 1331.09 1806.28C1306.51 1818.81 1281.44 1830.87 1256.86 1843.88C1252.52 1845.81 1247.7 1848.7 1245.77 1853.52C1244.33 1857.38 1245.77 1861.23 1247.22 1865.09C1254.45 1883.89 1266.5 1899.32 1280.96 1913.29C1334.95 1963.43 1381.22 2021.75 1418.34 2085.38C1421.23 2090.2 1424.61 2096.47 1423.16 2102.74C1422.2 2109.48 1415.45 2113.82 1409.66 2117.2C1390.38 2127.8 1367.73 2133.59 1345.07 2134.07" stroke="#07A57C" stroke-width="12" stroke-miterlimit="10"/>
<path d="M395.94 833.05V847.993C395.94 850.403 397.386 852.331 399.797 853.295L413.776 858.115C418.596 859.562 418.596 866.792 413.776 868.72L399.315 873.059C396.904 874.023 395.458 875.951 395.458 878.361V893.305C395.458 898.607 388.71 900.535 385.818 896.197L377.141 884.146C375.695 882.218 373.285 881.253 370.874 882.217L356.413 886.556C351.593 888.002 347.255 882.218 350.629 877.879L359.306 865.828C360.752 863.9 360.752 861.49 359.306 859.562L350.629 847.511C347.737 843.173 351.593 837.388 356.895 839.316L370.874 844.137C373.285 845.101 375.695 844.136 377.141 842.208L385.818 830.157C389.192 825.819 395.94 827.747 395.94 833.05Z" fill="#07DFAE" stroke="#07A57C" stroke-width="12" stroke-miterlimit="10"/>
<path d="M787.837 1964.87L798.441 1977.41C799.887 1979.33 802.78 1979.82 805.19 1978.85L820.615 1972.59C825.917 1970.18 831.22 1976.44 828.328 1981.26L819.651 1995.24C818.205 1997.65 818.687 2000.54 820.133 2002.47L830.738 2015C834.594 2019.34 830.738 2026.09 824.953 2024.65L809.046 2020.79C806.636 2020.31 803.744 2021.27 802.298 2023.68L793.621 2037.66C790.729 2042.48 783.016 2041.03 782.534 2035.25L781.088 2018.86C781.088 2016.45 779.16 2014.04 776.268 2013.56L760.36 2009.7C754.576 2008.26 754.094 2000.54 759.396 1998.13L774.821 1991.87C777.232 1990.9 778.678 1988.49 778.678 1985.6L777.232 1969.21C776.75 1963.43 783.98 1960.53 787.837 1964.87Z" fill="#07DFAE" stroke="#07A57C" stroke-width="12" stroke-miterlimit="10"/>
<path d="M892.92 508.639L903.525 521.172C904.971 523.1 907.864 523.582 910.274 522.618L925.699 516.351C931.001 513.941 936.304 520.208 933.411 525.028L924.735 539.007C923.289 541.417 923.771 544.31 925.217 546.238L935.822 558.771C939.678 563.109 935.822 569.857 930.037 568.411L914.13 564.555C911.72 564.073 908.828 565.037 907.381 567.447L898.705 581.426C895.813 586.247 888.1 584.801 887.618 579.016L886.172 562.627C886.172 560.217 884.244 557.807 881.352 557.325L865.444 553.468C859.66 552.022 859.178 544.309 864.48 541.899L879.906 535.633C882.316 534.669 883.762 532.259 883.762 529.366L882.316 512.977C881.834 507.193 889.064 504.3 892.92 508.639Z" fill="#07DFAE" stroke="#07A57C" stroke-width="12" stroke-miterlimit="10"/>
<path d="M1890.26 9.72987L1078.5 429.102C1061.63 437.779 1058.26 460.917 1072.72 473.932L1293.01 675.423C1306.03 687.474 1304.58 708.201 1290.12 718.324L369.91 1361.84C356.413 1371.48 354.003 1390.77 365.572 1403.3L500.06 1549.84C510.183 1560.92 509.701 1578.28 498.614 1588.88L15.1312 2040.07C-7.04253 2060.8 15.6132 2096.95 44.0534 2085.86L905.453 1751.33C922.807 1744.58 928.591 1723.37 917.504 1708.91L722.279 1455.84C712.639 1443.31 715.531 1425.47 728.064 1416.31L1714.79 717.842C1728.29 708.202 1730.22 688.438 1718.65 676.387L1526.8 473.932C1516.19 462.845 1516.68 445.491 1527.76 434.887L1922.55 54.0773C1945.21 31.9036 1918.7 -4.73124 1890.26 9.72987Z" fill="#07DFAE" stroke="#07A57C" stroke-width="12" stroke-miterlimit="10"/>
<path opacity="0.22" d="M1120.44 967.057L1081.4 913.068L748.309 1071.18C748.309 1071.18 771.929 1120.83 806.636 1161.8L675.04 1200.84L689.019 1247.12C783.498 1355.1 850.983 1202.29 850.983 1202.29C866.408 1211.93 883.28 1217.72 899.669 1215.31C977.277 1205.18 1004.75 1116.49 1004.75 1116.49C1004.75 1116.49 1146.47 1026.35 1120.44 967.057Z" fill="#2B437B"/>
<path d="M1083.81 1053.82C1096.34 1043.22 1105.98 1029.24 1113.21 1012.85C1122.85 992.121 1119.96 968.019 1105.5 949.702L1014.88 831.121C1003.31 815.696 985.954 805.573 966.672 802.68C952.211 800.752 937.268 798.824 923.289 799.306C921.361 799.306 918.951 799.306 916.541 799.306C893.403 801.717 870.747 817.624 854.84 831.603C852.43 833.531 850.02 835.941 848.091 837.387C837.005 847.51 830.256 861.489 828.328 875.95L825.918 890.893C823.508 907.765 828.81 925.118 840.379 938.133L956.55 1065.87C957.996 1067.8 960.888 1073.1 969.083 1076.48C982.58 1082.26 1003.79 1083.23 1031.27 1077.92C1051.99 1074.55 1069.35 1066.35 1083.81 1053.82Z" fill="#395DA0"/>
<path d="M858.696 834.978C856.286 836.906 854.358 838.834 851.948 840.762C841.825 850.403 835.558 862.936 833.63 876.915L831.22 891.858C828.81 907.283 833.63 923.19 844.717 934.759L961.37 1063.46C961.37 1063.46 962.816 1068.77 971.493 1072.14C980.652 1076 998.487 1079.37 1030.78 1073.1C1051.99 1069.25 1067.9 1060.57 1080.43 1049.48C1093.93 1037.92 1103.09 1023.45 1108.87 1010.44C1117.55 991.158 1115.14 968.502 1102.61 952.113L1011.5 833.05C1000.42 819.071 984.508 809.43 966.673 806.538C954.622 804.609 939.678 803.163 923.771 803.163C921.843 803.163 919.915 802.681 917.505 803.645C896.295 806.055 874.121 821.481 858.696 834.978ZM852.43 827.747C875.085 807.502 896.777 796.415 916.059 794.487C918.469 794.487 920.879 794.005 923.771 794.487C938.232 794.969 952.693 795.933 968.119 797.861C988.364 800.753 1006.68 811.84 1019.21 827.747L1110.32 946.328C1125.26 965.61 1128.15 992.122 1118.03 1014.3C1110.32 1031.17 1099.71 1045.15 1087.18 1056.23C1071.76 1069.73 1053.92 1078.41 1032.71 1082.26C1003.79 1087.56 981.616 1087.08 967.636 1080.33C958.96 1076.48 955.104 1071.18 953.657 1067.8L837.969 940.544C825.436 926.565 820.133 908.247 822.061 889.448L823.99 874.023C825.918 858.116 834.112 843.172 845.681 832.567C848.091 831.603 850.019 829.675 852.43 827.747Z" fill="#223266"/>
<path d="M961.37 1060.57C961.37 1060.57 962.816 1065.87 971.493 1069.25C975.349 1068.28 979.205 1068.28 983.062 1067.32C1026.45 1059.12 1049.58 1029.72 1060.67 1005.14C1069.35 985.855 1066.94 963.681 1054.4 947.292L964.262 829.675C952.693 815.214 936.304 805.091 917.987 803.645C892.439 806.055 866.409 827.747 851.466 842.208C842.789 850.403 837.005 861.971 835.558 873.54L833.148 890.412C830.738 905.837 836.04 921.262 846.163 932.831L961.37 1060.57Z" fill="#395DA0"/>
<path opacity="0.6" d="M988.222 1014.39C1005.23 999.46 995.669 960.756 966.866 927.941C938.063 895.126 900.926 880.626 883.918 895.554C866.911 910.482 876.472 949.186 905.275 982.001C934.078 1014.82 971.215 1029.32 988.222 1014.39Z" fill="#4671B0"/>
<path d="M1232.76 929.456C1245.29 918.851 1254.93 904.872 1262.16 888.483C1271.8 867.755 1268.91 843.653 1254.45 825.336L1163.34 706.755C1151.77 691.33 1134.42 681.207 1115.14 678.315C1100.68 676.387 1085.74 674.459 1071.76 674.941C1069.83 674.941 1067.42 674.941 1065.01 674.941C1041.87 677.351 1019.21 693.258 1003.31 707.237C1000.9 709.165 998.487 711.576 996.559 713.022C985.472 723.144 978.723 737.123 976.795 751.585L974.385 766.528C971.975 783.399 977.277 800.752 988.846 813.767L1105.02 941.507C1106.46 943.435 1109.36 948.737 1117.55 952.112C1131.05 957.896 1152.26 958.86 1179.73 953.558C1200.94 950.184 1218.3 941.989 1232.76 929.456Z" fill="#395DA0"/>
<path d="M1007.65 710.612C1005.24 712.54 1003.31 714.468 1000.9 716.396C990.774 726.037 984.508 738.57 982.58 752.549L980.17 767.492C977.759 782.917 982.58 798.825 993.667 810.393L1110.32 939.097C1110.32 939.097 1111.77 944.4 1120.44 947.774C1129.6 951.63 1147.44 955.005 1179.73 948.738C1200.94 944.882 1216.85 936.205 1229.38 925.118C1242.88 913.549 1252.04 899.088 1257.82 886.073C1266.5 866.792 1264.09 844.136 1251.56 827.747L1160.45 709.166C1149.36 695.187 1133.46 685.546 1115.62 682.654C1103.57 680.725 1088.63 679.279 1072.72 679.279C1070.79 679.279 1068.86 678.797 1066.45 679.761C1044.76 681.689 1023.07 697.115 1007.65 710.612ZM1001.38 703.381C1024.03 683.136 1045.73 672.049 1065.01 670.12C1067.42 670.12 1069.83 669.638 1072.72 670.12C1087.18 670.603 1101.64 671.567 1117.07 673.495C1137.31 676.387 1155.63 687.474 1168.16 703.381L1259.27 821.962C1274.21 841.244 1277.1 867.756 1266.98 889.93C1259.27 906.801 1248.66 920.78 1236.13 931.867C1220.71 945.364 1202.87 954.04 1181.66 957.897C1152.74 963.199 1130.56 962.717 1116.59 955.969C1107.91 952.112 1104.05 946.81 1102.61 943.436L986.918 816.178C974.385 802.199 969.083 783.881 971.011 765.082L972.939 749.657C974.867 733.749 983.062 718.806 994.631 708.202C997.041 707.237 998.969 705.309 1001.38 703.381Z" fill="#223266"/>
<path d="M1109.84 936.687C1109.84 936.687 1111.28 941.99 1119.96 945.364C1123.82 944.4 1127.67 944.4 1131.53 943.436C1174.91 935.241 1198.05 905.837 1209.14 881.253C1217.81 861.971 1215.4 839.798 1202.87 823.408L1112.73 705.791C1101.16 691.33 1084.77 681.207 1066.45 679.761C1040.91 682.171 1014.88 703.863 999.933 718.324C991.256 726.519 985.472 738.088 984.026 749.657L981.615 766.528C979.205 781.953 984.508 797.378 994.631 808.947L1109.84 936.687Z" fill="#395DA0"/>
<path opacity="0.6" d="M1136.71 890.297C1153.72 875.369 1144.15 836.665 1115.35 803.85C1086.55 771.035 1049.41 756.535 1032.4 771.463C1015.4 786.391 1024.96 825.095 1053.76 857.91C1082.56 890.725 1119.7 905.225 1136.71 890.297Z" fill="#4671B0"/>
<path d="M949.801 1143.48C950.765 1142.03 981.615 1107.81 970.528 1072.14C959.924 1037.43 845.199 927.527 839.896 923.189L838.932 922.225H837.486C837.004 922.225 820.615 919.814 805.672 920.778C798.441 921.26 792.175 922.225 787.836 924.635C775.785 930.901 755.54 942.47 739.633 956.449C729.51 965.126 721.797 974.285 716.977 982.479L716.495 982.961L716.013 983.443C715.049 984.889 702.034 1017.67 714.567 1035.5L715.049 1036.47C738.669 1069.25 799.405 1148.3 844.235 1168.06C846.645 1169.51 850.019 1169.99 852.911 1171.44C901.115 1185.42 946.909 1146.37 949.319 1144.44L949.801 1143.48Z" fill="#395DA0"/>
<path d="M743.007 959.824C734.33 967.537 726.136 975.731 721.315 984.89C721.315 984.89 707.818 1016.7 719.387 1032.13C728.546 1044.66 797.959 1141.55 846.645 1162.76C849.537 1164.21 852.429 1164.69 854.84 1165.65C901.597 1179.15 946.427 1139.62 946.427 1139.62C946.427 1139.62 976.313 1106.36 966.19 1073.1C955.585 1039.36 836.522 926.563 836.522 926.563C836.522 926.563 820.133 924.153 805.672 925.117C799.405 925.599 794.103 926.563 789.283 928.492C780.124 933.312 759.878 944.881 743.007 959.824ZM736.741 952.593C753.612 938.132 773.858 926.081 785.908 919.815C790.729 917.405 797.959 915.959 805.672 915.476C821.097 914.03 837.968 917.405 838.45 917.405L841.343 917.887L843.753 919.815C855.804 931.384 964.744 1035.5 975.831 1070.69C987.882 1109.26 955.103 1145.41 954.139 1146.85L953.657 1147.34L953.175 1147.82C951.247 1149.26 903.043 1190.24 852.429 1175.29C849.055 1174.33 846.163 1173.37 843.271 1171.92C797.959 1152.16 736.259 1072.14 712.157 1038.88L711.675 1037.91C697.696 1018.15 711.193 984.408 712.639 981.516V981.033L713.121 980.551C717.941 970.911 726.136 961.752 736.741 952.593Z" fill="#223266"/>
<path d="M846.163 1162.76C849.055 1164.21 851.947 1164.69 854.357 1165.65C887.618 1161.31 914.612 1137.69 914.612 1137.69C914.612 1137.69 944.498 1104.43 934.376 1071.17C924.735 1038.88 814.83 933.793 805.672 924.635C799.405 925.117 794.103 926.081 789.282 928.009C774.339 935.239 736.258 957.895 719.869 984.407C719.869 984.407 706.372 1016.22 717.941 1031.65C728.064 1044.66 797.477 1141.55 846.163 1162.76Z" fill="#395DA0"/>
<path opacity="0.6" d="M860.226 1117.57C875.033 1104.57 866.819 1071 841.88 1042.59C816.941 1014.18 784.721 1001.68 769.914 1014.68C755.107 1027.67 763.321 1061.24 788.26 1089.65C813.199 1118.07 845.419 1130.56 860.226 1117.57Z" fill="#4671B0"/>
<path d="M800.852 1232.18C801.816 1230.73 828.328 1202.29 819.651 1171.44C811.457 1141.55 715.049 1045.63 710.711 1041.77L709.747 1040.81H708.783C708.301 1040.81 694.321 1038.4 681.306 1038.88C675.04 1039.36 669.738 1039.84 666.363 1041.77C655.758 1046.59 638.405 1056.72 624.426 1068.28C615.749 1075.52 609.001 1083.23 604.663 1090.46L604.181 1090.94L603.698 1091.42C603.216 1092.39 591.166 1120.34 601.77 1135.77L602.252 1136.25C622.016 1164.69 672.148 1233.62 710.229 1250.98C712.639 1252.42 715.049 1252.91 717.459 1253.87C758.432 1266.88 798.442 1234.11 800.37 1232.66L800.852 1232.18Z" fill="#395DA0"/>
<path d="M627.318 1071.66C619.605 1077.92 612.857 1085.16 608.518 1092.39C608.518 1092.39 596.468 1119.38 606.108 1132.88C613.821 1143.96 671.665 1227.84 712.639 1246.64C715.049 1247.6 717.459 1248.57 719.869 1249.53C759.396 1262.06 798.441 1228.8 798.441 1228.8C798.441 1228.8 824.471 1200.84 816.277 1171.92C808.082 1143 708.3 1044.18 708.3 1044.18C708.3 1044.18 694.321 1041.77 681.788 1042.25C676.486 1042.25 671.665 1043.22 667.809 1044.66C659.132 1049.48 642.261 1059.13 627.318 1071.66ZM622.016 1065.39C636.477 1053.34 653.83 1043.22 664.917 1037.92C669.255 1035.99 675.04 1034.54 681.788 1034.54C694.803 1033.58 709.264 1036.47 709.746 1036.47L712.156 1036.95L714.085 1038.4C724.207 1048.52 815.313 1139.63 824.471 1169.51C834.112 1202.29 805.672 1232.66 804.708 1234.1L804.226 1234.59L803.744 1235.07C802.297 1236.52 760.36 1270.74 716.977 1256.76C714.085 1255.8 711.674 1254.83 709.264 1253.87C670.701 1236.03 619.605 1166.62 599.36 1137.7L598.878 1137.22C587.309 1120.34 599.36 1091.42 600.806 1089.01V1088.53L601.288 1088.05C605.626 1080.82 612.857 1073.1 622.016 1065.39Z" fill="#223266"/>
<path d="M712.157 1247.12C714.567 1248.08 716.977 1249.05 719.387 1250.01C747.827 1247.12 771.447 1227.36 771.447 1227.36C771.447 1227.36 797.477 1199.4 789.282 1170.48C781.57 1142.52 689.501 1050.93 681.788 1043.22C676.486 1043.22 671.666 1044.18 667.809 1045.63C654.794 1051.41 622.016 1070.21 607.555 1092.39C607.555 1092.39 595.504 1119.38 605.144 1132.88C612.857 1144.45 670.701 1228.32 712.157 1247.12Z" fill="#395DA0"/>
<path opacity="0.6" d="M724.632 1208.23C737.456 1197.42 731.021 1168.69 710.26 1144.06C689.499 1119.43 662.273 1108.23 649.449 1119.04C636.625 1129.85 643.06 1158.58 663.821 1183.21C684.582 1207.84 711.808 1219.04 724.632 1208.23Z" fill="#4671B0"/>
<path d="M1548.49 1327.62C1550.42 1321.35 1575 1238.44 1517.16 1126.61C1457.87 1011.4 1397.13 910.657 1397.13 910.657C1397.13 910.657 1334.95 834.013 1257.82 874.505C1236.61 885.591 1211.07 901.017 1185.04 917.406C1115.62 961.271 1043.8 1011.88 1043.8 1011.88C1043.8 1011.88 977.277 1066.84 1026.44 1107.33C1075.61 1148.3 1123.33 1154.09 1223.12 1085.15C1223.12 1085.15 1054.4 1243.74 1207.21 1472.71" fill="#395DA0"/>
<path d="M1548.49 1327.62C1550.42 1321.35 1575 1238.44 1517.16 1126.61C1457.87 1011.4 1397.13 910.657 1397.13 910.657C1397.13 910.657 1334.95 834.013 1257.82 874.505C1236.61 885.591 1211.07 901.017 1185.04 917.406C1115.62 961.271 1043.8 1011.88 1043.8 1011.88C1043.8 1011.88 977.277 1066.84 1026.44 1107.33C1075.61 1148.3 1123.33 1154.09 1223.12 1085.15C1223.12 1085.15 1054.4 1243.74 1207.21 1472.71" stroke="#223266" stroke-width="12" stroke-miterlimit="10" stroke-linecap="round"/>
<path d="M1495.47 1293.4L1543.19 1324.25C1545.12 1318.94 1570.18 1242.78 1513.78 1132.88C1454.98 1019.12 1397.61 917.407 1397.61 917.407C1397.61 917.407 1336.39 842.209 1260.23 881.254C1239.51 891.859 1213.96 906.802 1188.41 923.191C1188.41 923.191 1321.45 875.469 1373.51 1004.66C1424.61 1133.36 1495.47 1293.4 1495.47 1293.4Z" fill="#2B437B"/>
<path opacity="0.6" d="M1317.11 1455.43C1356 1443.29 1368.48 1372.47 1345 1297.24C1321.51 1222.02 1270.96 1170.88 1232.07 1183.02C1193.19 1195.16 1180.71 1265.98 1204.19 1341.2C1227.67 1416.42 1278.23 1467.57 1317.11 1455.43Z" fill="#4671B0"/>
<path opacity="0.6" d="M1111 1076.92C1123.39 1050.98 1117.67 1022.41 1098.21 1013.11C1078.75 1003.82 1052.93 1017.31 1040.54 1043.26C1028.14 1069.2 1033.87 1097.77 1053.33 1107.06C1072.78 1116.36 1098.6 1102.86 1111 1076.92Z" fill="#4671B0"/>
</svg>
