<svg width="1811" height="1935" viewBox="0 0 1811 1935" fill="none" xmlns="http://www.w3.org/2000/svg">
<path d="M1171.86 1463.06C862.874 1254.34 511.469 1023.45 511.469 1023.45C511.469 1023.45 425.666 952.587 214.052 1370.03C213.57 1371 213.088 1371.48 212.606 1372.44C150.423 1464.51 267.558 1652.02 474.352 1791.81C680.664 1931.6 898.544 1970.17 960.727 1878.58C1030.14 1800.97 1267.3 1527.18 1171.86 1463.06Z" fill="#07DFAE" stroke="#07A57C" stroke-width="12" stroke-miterlimit="10"/>
<path d="M246.831 1409.56L250.205 1405.22C250.205 1405.22 252.133 1402.33 255.507 1397.99C303.229 1337.25 726.939 789.659 971.332 366.913L1176.68 30.9327C1177.16 29.9686 1214.28 -17.7531 1270.68 20.3279C1271.64 20.8099 1272.12 21.292 1272.61 21.774C1281.76 28.0405 1288.03 37.6812 1291.4 50.2141L1291.89 52.1423C1303.94 108.059 1251.4 203.02 1247.54 210.251L1126.55 526.949L1401.31 684.093L1463.97 936.68C1458.67 948.731 1346.84 1200.84 1235.97 1336.77L923.611 1867.49L246.831 1409.56Z" fill="#395DA0"/>
<path d="M1459.64 934.752C1459.64 934.752 1345.88 1195.05 1232.11 1334.36L922.646 1861.23L254.061 1409.08C254.061 1409.08 255.989 1406.18 259.363 1401.85C312.387 1333.4 731.76 792.551 975.671 369.804L1181.02 33.8245C1181.02 33.8245 1214.76 -11.487 1268.27 24.6658C1269.23 25.1479 1269.23 25.6298 1270.2 26.1119C1278.87 31.8963 1284.17 41.5371 1286.58 51.6599C1300.56 107.094 1243.2 208.804 1243.2 208.804L1120.76 529.841L1380.58 678.79L1401.79 690.841L1459.64 934.752ZM1399.38 678.79L1383.96 670.113L1130.89 525.502L1250.43 212.66C1255.73 203.502 1305.87 110.468 1295.74 53.5881L1294.78 49.2497C1291.4 35.7526 1284.66 25.6299 1274.53 17.9173C1273.57 17.4352 1273.09 16.9532 1272.12 16.4711C1212.35 -24.02 1172.34 27.076 1171.86 28.0401L1171.38 28.5221L1170.9 29.0041L965.548 364.984C721.637 787.73 297.444 1334.84 250.205 1396.06C246.348 1400.4 244.902 1403.29 244.902 1403.29L238.154 1411.49L246.83 1417.27L915.416 1868.94L923.611 1874.72L928.913 1866.05L1238.38 1339.66C1348.29 1204.69 1459.15 956.443 1466.38 939.572L1399.38 678.79Z" fill="#223266"/>
<path d="M1341.05 811.351C1334.79 816.171 1355.03 752.06 1379.62 677.344L1400.83 689.395C1401.31 689.877 1355.51 799.3 1341.05 811.351Z" fill="#2B437B"/>
<path d="M1389.26 740.009C1389.26 740.009 1335.27 902.456 1257.18 901.974C1179.09 901.492 1140.53 817.135 1140.53 817.135C1140.53 817.135 988.203 745.312 1007 683.129L1039.3 624.32L1389.26 740.009Z" fill="#2B437B"/>
<path d="M1025.8 1048.99C1025.8 1048.99 1103.89 980.063 1224.4 1007.54L1025.8 1048.99Z" fill="#395DA0"/>
<path d="M1025.8 1048.99C1025.8 1048.99 1103.89 980.063 1224.4 1007.54" stroke="#223266" stroke-width="12" stroke-miterlimit="10" stroke-linecap="round"/>
<path d="M1053.76 764.594C1040.26 755.435 1028.69 742.902 1019.05 727.959C1007 708.677 1007 684.093 1018.57 664.33L1094.25 535.144C1103.89 518.273 1119.8 506.222 1138.12 500.919C1152.1 497.063 1167.04 493.689 1181.02 491.761C1182.95 491.279 1185.36 491.279 1187.77 491.279C1210.9 490.797 1235.49 503.812 1252.84 515.38C1255.25 516.827 1258.14 518.755 1260.07 520.201C1272.12 528.878 1280.8 541.892 1284.66 555.872L1288.99 570.333C1293.33 586.722 1290.44 604.557 1280.8 619.018L1181.98 760.255C1181.02 762.666 1178.61 767.968 1170.9 772.306C1158.36 780.019 1137.15 783.393 1109.19 781.947C1087.99 781.465 1069.67 775.198 1053.76 764.594Z" fill="#395DA0"/>
<path d="M1249.95 519.236C1252.36 520.682 1254.77 522.61 1257.18 524.056C1268.27 532.251 1276.46 543.82 1279.84 557.317L1284.17 571.778C1288.51 586.721 1285.62 603.11 1276.46 616.125L1176.68 758.326C1176.68 758.326 1176.2 763.629 1167.52 768.449C1158.84 773.752 1141.97 779.054 1108.71 777.126C1087.5 776.162 1070.63 769.413 1056.65 759.773C1041.71 749.65 1031.1 736.635 1023.39 724.584C1012.3 706.748 1011.82 683.611 1022.43 665.775L1098.11 536.589C1107.27 521.164 1122.21 509.595 1139.56 504.775C1151.13 501.401 1165.59 498.026 1181.5 496.098C1183.43 495.616 1185.36 495.134 1187.77 495.616C1208.98 495.616 1232.6 507.667 1249.95 519.236ZM1255.25 511.524C1230.19 494.652 1207.05 485.975 1187.77 486.458C1185.36 486.458 1182.95 486.458 1180.05 487.422C1166.07 489.35 1151.61 492.724 1136.67 496.58C1116.91 501.883 1100.52 514.898 1089.43 532.733L1013.75 661.919C1001.22 683.129 1001.7 709.641 1014.72 730.368C1024.36 746.275 1036.89 758.808 1050.87 767.967C1067.74 779.536 1086.54 785.803 1107.75 786.767C1136.67 788.213 1158.84 785.32 1172.34 776.644C1180.54 771.823 1183.91 765.557 1184.87 762.183L1283.69 621.428C1294.78 606.003 1297.67 587.203 1292.85 568.886L1288.99 553.943C1285.14 538.518 1275.02 524.538 1262.48 515.862C1260.07 514.898 1257.66 512.97 1255.25 511.524Z" fill="#223266"/>
<path d="M1176.68 756.399C1176.68 756.399 1176.2 761.701 1167.52 766.521C1163.66 766.039 1159.33 766.521 1155.47 766.039C1111.12 763.629 1085.09 737.117 1070.63 713.979C1059.55 696.144 1059.55 673.97 1069.67 655.653L1144.38 527.431C1154.02 511.524 1168.97 499.955 1186.8 495.617C1212.35 494.653 1240.79 512.97 1257.66 525.503C1267.3 532.733 1274.05 543.338 1277.43 554.425L1281.76 570.814C1286.1 585.758 1282.73 601.665 1274.05 614.68L1176.68 756.399Z" fill="#395DA0"/>
<path d="M802.137 810.387L352.879 1475.12L259.845 1400.88C312.87 1332.43 732.241 791.587 976.152 368.841L1181.5 32.861C1181.5 32.861 1216.21 -13.4146 1270.68 25.1483C1279.35 30.9328 1284.66 40.5735 1287.07 50.6963C1287.07 50.6963 1220.06 11.1693 1166.56 126.858C1111.6 242.547 802.137 810.387 802.137 810.387Z" fill="#2B437B"/>
<path d="M627.64 1094.79C625.229 1089 590.523 1009.47 633.424 891.369C677.771 769.414 725.493 661.92 725.493 661.92C725.493 661.92 777.553 578.527 859.499 608.414C881.673 616.608 909.149 628.659 937.107 641.674C1011.34 676.381 1089.43 717.836 1089.43 717.836C1089.43 717.836 1162.22 764.111 1118.84 810.387C1074.97 857.145 1028.69 869.196 921.2 812.797C921.2 812.797 1108.23 949.214 985.311 1195.53" fill="#395DA0"/>
<path d="M627.64 1094.79C625.229 1089 590.523 1009.47 633.424 891.369C677.771 769.414 725.493 661.92 725.493 661.92C725.493 661.92 777.553 578.527 859.499 608.414C881.673 616.608 909.149 628.659 937.107 641.674C1011.34 676.381 1089.43 717.836 1089.43 717.836C1089.43 717.836 1162.22 764.111 1118.84 810.387C1074.97 857.145 1028.69 869.196 921.2 812.797C921.2 812.797 1108.23 949.214 985.311 1195.53" stroke="#223266" stroke-width="12" stroke-miterlimit="10" stroke-linecap="round"/>
<path d="M675.361 1053.81L631.978 1090.45C629.568 1085.15 594.861 1012.84 637.28 896.671C681.146 776.161 725.493 668.185 725.493 668.185C725.493 668.185 776.589 585.757 857.089 615.161C879.263 622.873 906.257 634.924 933.251 647.457C933.251 647.457 794.906 617.089 760.2 751.577C725.975 886.548 675.361 1053.81 675.361 1053.81Z" fill="#2B437B"/>
<path opacity="0.6" d="M970.694 1065.03C984.547 987.462 963.273 918.772 923.176 911.611C883.08 904.451 839.345 961.531 825.491 1039.1C811.638 1116.68 832.912 1185.36 873.009 1192.53C913.105 1199.69 956.84 1142.61 970.694 1065.03Z" fill="#4671B0"/>
<path opacity="0.6" d="M1167.35 1165.09C1228.51 1153.26 1273.14 1118.04 1267.02 1086.41C1260.91 1054.79 1206.37 1038.74 1145.21 1050.56C1084.05 1062.38 1039.42 1097.61 1045.54 1129.23C1051.65 1160.86 1106.19 1176.91 1167.35 1165.09Z" fill="#4671B0"/>
<path opacity="0.6" d="M1222.51 670.631C1246.96 634.459 1251.58 594.862 1232.84 582.19C1214.09 569.518 1179.07 588.569 1154.62 624.741C1130.17 660.914 1125.55 700.511 1144.3 713.183C1163.04 725.855 1198.06 706.804 1222.51 670.631Z" fill="#4671B0"/>
<path d="M1198.37 836.898C1196.93 835.452 1162.7 805.566 1168.97 768.449C1174.75 732.778 1275.5 609.377 1279.84 604.074L1280.8 603.11L1282.25 602.628C1282.73 602.628 1298.64 598.29 1314.06 597.326C1321.29 596.844 1327.56 597.326 1331.9 599.254C1344.43 603.592 1366.12 613.233 1383.96 624.802C1395.04 632.514 1403.72 640.227 1409.5 647.94L1409.99 648.422L1410.47 648.904C1411.43 650.35 1428.79 681.2 1418.18 700L1417.7 700.964C1398.42 736.634 1348.28 822.919 1306.35 847.985C1303.94 849.913 1301.05 850.877 1298.15 852.323C1251.88 872.569 1201.75 839.308 1199.34 837.862L1198.37 836.898Z" fill="#395DA0"/>
<path d="M1380.1 628.658C1389.74 634.924 1398.9 642.637 1404.68 650.832C1404.68 650.832 1422.04 680.718 1412.88 697.589C1405.65 711.086 1348.77 815.688 1302.97 843.164C1300.08 844.61 1297.67 846.057 1295.26 847.021C1250.91 866.302 1201.26 833.042 1201.26 833.042C1201.26 833.042 1167.52 803.637 1173.31 769.413C1179.57 734.706 1283.21 607.448 1283.21 607.448C1283.21 607.448 1299.12 603.11 1313.58 601.664C1319.84 601.182 1325.15 601.664 1329.97 603.11C1340.57 606.966 1361.3 616.125 1380.1 628.658ZM1385.88 620.463C1367.57 607.93 1345.87 598.772 1332.86 593.951C1327.56 592.023 1320.81 591.541 1312.61 592.023C1297.19 592.505 1280.8 597.807 1280.32 597.807L1277.43 598.772L1275.5 600.7C1264.89 613.715 1169.93 730.85 1163.66 767.003C1156.92 806.53 1193.55 838.344 1194.52 839.79L1195 840.272L1195.48 840.754C1197.41 842.2 1250.43 876.907 1299.12 855.697C1302.49 854.251 1305.38 852.805 1307.79 851.359C1350.69 826.293 1401.31 739.044 1421.07 702.891L1421.55 701.928C1433.12 680.718 1415.29 648.903 1413.36 646.011V645.529L1412.88 645.047C1406.61 636.37 1397.45 628.658 1385.88 620.463Z" fill="#223266"/>
<path d="M1303.46 843.164C1300.56 844.61 1298.15 846.057 1295.74 847.021C1262 847.021 1232.6 826.775 1232.6 826.775C1232.6 826.775 1198.85 797.371 1204.64 763.146C1210.42 729.886 1305.87 611.786 1313.58 601.664C1319.84 601.182 1325.15 601.664 1329.97 603.11C1345.39 608.412 1385.88 625.766 1405.65 650.349C1405.65 650.349 1423 680.236 1413.84 697.107C1406.13 711.086 1349.25 815.688 1303.46 843.164Z" fill="#395DA0"/>
<path opacity="0.6" d="M1351.67 762.704C1372.84 731.383 1376.77 697.05 1360.45 686.018C1344.13 674.986 1313.73 691.432 1292.56 722.752C1271.39 754.073 1267.46 788.406 1283.78 799.438C1300.11 810.47 1330.5 794.024 1351.67 762.704Z" fill="#4671B0"/>
<path opacity="0.6" d="M1091.19 813.485C1109.33 801.817 1111.42 772.755 1095.86 748.575C1080.3 724.395 1052.99 714.252 1034.85 725.92C1016.72 737.588 1014.63 766.649 1030.18 790.83C1045.74 815.01 1073.06 825.153 1091.19 813.485Z" fill="#4671B0"/>
<path d="M438.681 1101.06C428.558 1141.06 834.916 1538.26 1127.51 1544.05L929.877 1895.93L210.678 1414.38L449.286 1085.15L438.681 1101.06Z" fill="#07DFAE"/>
<path d="M430.005 1097.2C608.84 1321.83 873.479 1518.98 1156.43 1551.28" stroke="#07A57C" stroke-width="12" stroke-miterlimit="10" stroke-linecap="round"/>
<path opacity="0.51" d="M244.902 1436.55C271.414 1387.87 297.926 1339.18 323.956 1290.5C341.309 1258.68 359.145 1225.42 388.549 1203.73C394.816 1198.91 401.082 1195.53 408.312 1194.09C423.256 1191.68 436.753 1202.28 447.84 1210.96C469.049 1228.31 491.705 1250.97 486.884 1277.48C484.956 1288.09 477.726 1298.21 470.977 1306.89C431.932 1358.95 392.405 1411.49 352.878 1463.55C329.74 1494.4 305.157 1532.96 320.1 1568.63C327.812 1586.47 343.719 1599.96 354.324 1615.87C358.181 1622.14 361.555 1628.4 366.375 1633.22C378.908 1645.27 400.118 1643.83 415.061 1634.67C430.004 1625.51 439.645 1610.57 449.286 1596.11C470.013 1564.77 490.741 1533.44 510.504 1502.11C533.642 1466.92 557.744 1430.29 591.968 1405.22C599.681 1399.92 607.876 1394.62 617.034 1393.65C626.193 1392.69 635.834 1396.54 644.511 1400.4C669.577 1411.49 693.678 1425.47 715.852 1442.34C719.708 1445.23 723.565 1448.12 724.529 1452.94C725.975 1457.76 723.565 1463.06 720.672 1467.4C677.289 1545.98 629.085 1622.14 575.579 1693.96C568.349 1704.08 560.154 1715.17 561.118 1727.7C561.6 1739.27 568.831 1748.91 577.507 1756.14C594.379 1771.09 615.588 1779.76 636.798 1787.96C652.705 1793.74 669.577 1800.01 685.002 1794.22C700.427 1788.44 710.067 1772.05 717.298 1757.59C754.415 1687.69 799.244 1621.66 849.376 1560.44C857.571 1550.31 867.212 1540.19 880.227 1538.26C888.421 1537.3 896.134 1539.71 903.846 1542.6C929.876 1552.24 955.906 1560.92 981.936 1570.56C986.757 1572.01 991.577 1574.42 993.987 1578.75C995.916 1582.13 994.951 1586.47 993.987 1590.32C989.167 1609.6 979.044 1626.96 966.511 1642.38C919.272 1699.26 880.709 1762.41 851.786 1830.38C849.376 1835.68 846.966 1842.43 848.894 1848.21C850.823 1854.96 857.571 1858.34 864.319 1860.75C885.047 1868.94 908.185 1871.83 930.358 1869.42" stroke="#07A57C" stroke-width="12" stroke-miterlimit="10"/>
<path d="M318.654 560.209H340.346C343.72 560.209 346.612 558.281 348.058 554.906L354.807 534.179C357.217 526.948 367.821 526.948 370.232 534.179L376.98 554.906C377.944 558.281 381.319 560.209 384.693 560.691H406.384C414.097 560.691 417.471 570.813 411.205 575.152L393.37 588.167C390.477 590.095 389.513 593.469 390.477 597.326L397.226 618.053C399.636 625.284 390.959 631.55 385.175 626.73L367.821 613.715C365.411 611.787 361.555 611.787 358.663 613.715L340.828 626.73C334.561 631.068 326.366 624.802 328.777 618.053L335.525 597.326C336.971 593.951 335.525 590.577 332.633 588.167L315.28 575.152C308.049 569.849 310.941 560.209 318.654 560.209Z" fill="#07DFAE" stroke="#07A57C" stroke-width="12" stroke-miterlimit="10"/>
<path d="M1463.01 1331.47L1484.22 1344.96C1487.59 1346.89 1491.93 1346.89 1495.31 1344.48L1514.59 1328.58C1521.82 1322.79 1531.94 1329.54 1529.53 1338.22L1523.26 1362.8C1522.3 1366.66 1524.23 1370.99 1527.12 1372.92L1548.33 1386.42C1556.04 1391.24 1553.15 1402.81 1543.99 1403.77L1518.44 1405.22C1514.59 1405.22 1511.21 1408.11 1510.25 1412.45L1503.98 1437.03C1501.57 1445.71 1489.52 1446.67 1486.63 1438.48L1477.47 1414.86C1476.02 1411 1472.65 1408.59 1468.31 1409.08L1442.76 1410.52C1434.09 1411 1429.27 1399.92 1436.02 1394.13L1455.3 1378.23C1458.67 1375.82 1459.64 1371.48 1458.19 1367.62L1449.03 1344C1446.14 1334.84 1455.78 1326.65 1463.01 1331.47Z" fill="#07DFAE" stroke="#07A57C" stroke-width="12" stroke-miterlimit="10"/>
<path d="M1773.92 675.899L1778.74 689.878C1779.71 692.288 1781.64 693.252 1784.05 693.734H1798.99C1803.81 693.252 1806.22 700.482 1802.36 703.857L1790.31 713.015C1788.38 714.944 1787.42 716.872 1788.38 719.282L1793.21 733.261C1795.13 738.081 1789.35 742.42 1785.01 739.045L1772.96 730.851C1771.03 729.405 1768.14 729.405 1766.21 731.333L1754.16 740.492C1750.3 743.384 1744.04 739.527 1745.97 734.225L1750.3 719.764C1750.79 717.354 1750.3 715.426 1748.38 713.98L1736.33 705.785C1731.99 702.893 1733.91 696.144 1739.7 696.144H1754.64C1757.05 696.144 1758.98 694.698 1759.94 692.288L1764.28 677.827C1765.25 671.078 1772 670.596 1773.92 675.899Z" fill="#07DFAE" stroke="#07A57C" stroke-width="12" stroke-miterlimit="10"/>
<path d="M751.523 168.313L765.502 176.508C767.43 177.954 770.322 177.472 772.251 175.543L784.783 164.457C789.122 160.6 795.87 164.457 794.906 170.241L791.532 186.148C791.05 189.04 792.496 191.451 794.424 192.897L808.403 201.091C813.706 203.984 812.26 211.696 805.993 212.178L789.604 214.106C787.194 214.588 784.784 216.517 784.301 218.927L780.927 234.834C779.963 240.136 772.251 241.583 769.84 236.28L763.092 221.337C762.128 218.927 759.718 217.481 756.825 217.963L740.436 219.891C734.652 220.373 731.278 213.142 735.616 209.286L748.149 198.199C750.077 196.271 750.559 193.861 749.595 190.969L742.846 176.025C740.436 170.723 746.221 165.421 751.523 168.313Z" fill="#07DFAE" stroke="#07A57C" stroke-width="12" stroke-miterlimit="10"/>
<path d="M23.6471 1064.42L37.626 1072.61C39.5541 1074.06 42.4464 1073.58 44.3746 1071.65L56.9074 1060.56C61.2458 1056.71 67.9945 1060.56 67.0304 1066.35L63.6561 1082.25C63.174 1085.15 64.62 1087.56 66.5482 1089L80.5274 1097.2C85.8298 1100.09 84.3837 1107.8 78.1172 1108.28L61.7278 1110.21C59.3176 1110.69 56.9076 1112.62 56.4255 1115.03L53.0512 1130.94C52.0871 1136.24 44.3746 1137.69 41.9644 1132.39L35.2158 1117.44C34.2517 1115.03 31.8416 1113.59 28.9493 1114.07L13.0422 1116C7.25774 1116.48 3.88348 1109.25 8.22181 1105.39L20.7547 1094.31C22.6828 1092.38 23.1651 1089.97 22.201 1087.08L15.4524 1072.13C13.0422 1066.83 18.8267 1061.53 23.6471 1064.42Z" fill="#07DFAE" stroke="#07A57C" stroke-width="12" stroke-miterlimit="10"/>
<path d="M1271.64 876.426C1271.64 876.426 1364.67 1053.33 1456.74 941.019L1391.67 876.908L1298.63 855.698L1271.64 876.426Z" fill="#2B437B"/>
<path d="M1340.57 934.27C1339.13 932.824 1305.87 903.902 1312.13 868.231C1317.92 833.524 1415.29 713.979 1419.63 708.677L1420.59 707.713L1422.04 707.231C1422.52 707.231 1437.94 702.892 1452.89 701.928C1460.12 701.446 1465.9 701.928 1470.24 703.374C1482.77 707.713 1503.5 716.871 1520.37 728.44C1531.46 735.671 1539.65 743.383 1545.44 751.096L1545.92 751.578L1546.4 752.06C1547.37 753.024 1564.24 783.393 1554.12 801.71L1553.63 802.674C1534.83 837.381 1486.15 920.773 1445.17 945.357C1442.76 947.285 1439.87 948.249 1437.46 949.695C1392.63 968.977 1343.46 937.162 1341.54 935.716L1340.57 934.27Z" fill="#395DA0"/>
<path d="M1517 732.297C1526.16 738.563 1535.32 745.794 1541.1 753.506C1541.1 753.506 1557.97 782.429 1548.81 798.818C1541.58 811.833 1486.63 913.543 1441.8 940.055C1438.91 941.501 1436.5 942.947 1434.09 943.911C1390.7 962.71 1342.98 930.414 1342.98 930.414C1342.98 930.414 1310.2 901.974 1315.99 868.713C1321.77 834.971 1423 711.569 1423 711.569C1423 711.569 1438.43 707.231 1452.4 706.267C1458.19 705.785 1463.97 706.267 1468.31 707.713C1478.43 711.087 1499.16 720.246 1517 732.297ZM1522.3 724.584C1504.46 712.533 1483.74 703.374 1470.72 699.036C1465.9 697.108 1458.67 696.626 1450.96 697.108C1436.02 697.59 1420.11 702.892 1419.14 702.892L1416.25 703.856L1414.32 705.785C1404.2 718.8 1312.13 832.078 1305.87 867.267C1299.12 905.83 1334.79 936.68 1336.23 938.127L1336.72 938.609L1337.2 939.091C1339.13 940.537 1390.22 973.797 1437.46 953.552C1440.35 952.106 1443.25 950.659 1446.14 949.213C1487.59 924.629 1536.76 839.791 1556.04 805.084L1556.52 804.12C1567.61 783.393 1550.74 752.542 1548.81 749.65V749.168L1548.33 748.686C1542.55 740.009 1533.87 732.297 1522.3 724.584Z" fill="#223266"/>
<path d="M1442.76 940.537C1439.87 941.983 1437.46 943.429 1435.05 944.393C1402.27 944.393 1373.83 925.111 1373.83 925.111C1373.83 925.111 1341.05 896.671 1346.84 863.411C1352.14 831.114 1445.17 716.389 1452.89 706.749C1458.67 706.267 1464.46 706.749 1468.79 708.195C1483.74 713.497 1523.26 730.368 1542.55 753.988C1542.55 753.988 1559.42 782.91 1550.26 799.3C1542.06 812.797 1487.11 914.025 1442.76 940.537Z" fill="#395DA0"/>
<path opacity="0.6" d="M1489.52 863.003C1510.1 832.565 1513.9 799.189 1498.02 788.455C1482.14 777.721 1452.59 793.694 1432.02 824.132C1411.44 854.57 1407.64 887.946 1423.52 898.68C1439.4 909.414 1468.95 893.441 1489.52 863.003Z" fill="#4671B0"/>
<path d="M1671.25 57.4441L1399.86 9.7225C1376.24 5.38417 1353.59 21.2914 1349.25 44.9112L1345.39 65.6388L1303.46 58.4083C1304.42 71.4233 1302.01 88.2946 1298.15 104.202L1337.68 110.95L1297.19 341.846L1115.94 310.032C1052.31 298.945 1009.41 238.208 1020.98 174.097C1030.62 118.181 1078.83 78.6538 1133.3 77.2077L1158.36 32.3782C1071.6 20.3273 990.131 79.1358 975.188 165.902C973.26 175.543 972.778 185.184 972.778 194.343C972.778 271.951 1028.69 341.364 1107.75 354.861L1289.48 386.675L1285.62 407.403C1281.28 431.023 1297.19 453.679 1320.81 458.017L1592.2 505.739C1615.81 510.077 1638.47 494.17 1642.81 470.55L1706.44 107.094C1710.78 84.4382 1694.87 61.7825 1671.25 57.4441ZM1549.29 268.094C1543.99 298.945 1514.59 319.672 1483.74 313.888C1452.89 308.585 1432.16 279.181 1437.94 248.331C1443.25 217.48 1472.65 196.753 1503.5 202.537C1534.35 207.84 1555.08 237.244 1549.29 268.094Z" fill="#07DFAE" stroke="#07A57C" stroke-width="12" stroke-miterlimit="10"/>
</svg>
