<svg width="3533" height="1267" viewBox="0 0 3533 1267" fill="none" xmlns="http://www.w3.org/2000/svg">
<path d="M2878.07 439.711C2821.11 257.707 2605.76 194.054 2439.55 159.202C2192.66 107.408 1940.2 81.5922 1687.89 82.6409C1443.18 83.6897 1196.69 108.538 957.698 162.268C745.901 209.866 533.135 286.67 366.682 430.353C289.064 497.394 213.704 590.413 214.834 698.438C215.802 791.053 275.589 864.871 349.577 914.084C432.763 969.427 530.714 997.583 626.891 1020.33C749.209 1049.3 873.544 1069.3 998.363 1083.91C1254.21 1113.84 1512.97 1124.57 1770.44 1127.95C2029.35 1131.42 2288.59 1124.57 2546.94 1106.66C2670.47 1098.1 2794.24 1086.16 2915.59 1060.99C3022.66 1038.73 3132.72 1007.91 3226.71 950.307C3305.14 902.224 3376.95 830.423 3390.02 735.468C3403.82 635.35 3348.95 544.59 3280.13 476.741C3201.7 399.373 3102.7 343.385 3004.19 295.705C2900.59 245.525 2792.23 205.671 2681.85 173.24C2449.8 105.069 2208.55 64.6503 1968.92 34.4776C1714.84 2.44936 1457.38 -11.0235 1201.85 11.727C974.077 31.9766 747.595 81.0273 536.201 169.448C432.521 212.851 332.634 265.129 239.443 328.137C154.159 385.82 64.841 453.668 23.2077 551.124C-61.5113 749.425 107.12 941.03 265.02 1039.37C363.132 1100.44 475.203 1141.1 586.145 1171.68C703.864 1204.11 824.73 1224.12 945.837 1238.88C1194.27 1269.22 1445.52 1273.09 1695.16 1256.39C1945.36 1239.61 2193.95 1202.66 2439.47 1152.24C2686.21 1101.57 2929.95 1037.36 3171.44 965.797C3287.79 931.348 3403.66 895.125 3519.11 857.853C3543 850.189 3532.75 812.433 3508.71 820.178C3278.19 894.48 3046.22 964.668 2811.75 1025.34C2577.69 1085.92 2341.04 1137.07 2101.89 1172.89C1862.17 1208.79 1619.8 1228.8 1377.34 1227.11C1139.08 1225.41 897.104 1205.97 664.732 1151.35C459.712 1103.19 232.988 1021.71 105.909 842.767C53.061 768.303 22.3201 676.575 51.4473 586.541C83.3985 487.874 174.491 419.381 256.79 363.553C436.878 241.249 641.252 158.879 852.243 107.811C1080.66 52.468 1316.42 34.7195 1551.05 40.6895C1798.92 46.9822 2045.49 79.2522 2289.24 123.382C2509.18 163.236 2729.78 215.029 2934.63 306.435C3032.02 349.838 3130.78 400.745 3213.16 469.158C3285.05 528.777 3356.29 611.55 3353.07 710.62C3350.08 803.074 3279.16 872.939 3204.61 918.117C3112.95 973.703 3006.04 1002.75 2901.88 1024.21C2783.83 1048.49 2663.61 1059.78 2543.56 1068.09C2419.22 1076.65 2294.72 1082.62 2170.23 1086.16C1919.7 1093.34 1668.85 1090.6 1418.49 1078.02C1173.05 1065.67 926.796 1046.31 686.194 994.114C589.05 973.058 490.049 949.501 402.426 900.853C329.325 860.273 258.484 796.136 253.966 706.909C248.721 602.03 327.792 513.933 402.829 450.925C482.626 383.803 575.091 332.009 671.025 291.913C877.578 205.671 1104.22 165.818 1325.7 142.018C1567.59 116.121 1812.15 115.395 2054.2 139.356C2175.55 151.377 2296.34 169.771 2415.75 194.377C2506.44 213.013 2597.7 235.844 2680.07 279.489C2750.92 317.004 2815.46 371.54 2840.07 450.36C2847.9 474.079 2885.66 463.833 2878.07 439.711Z" fill="#07DFAE"/>
</svg>
