<svg width="2108" height="2253" viewBox="0 0 2108 2253" fill="none" xmlns="http://www.w3.org/2000/svg">
<path d="M1598.47 1543.93C1205.49 1543.93 762.265 1549.82 762.265 1549.82C762.265 1549.82 645.694 1538.39 706.748 2027.79C706.697 2028.75 706.646 2029.67 706.646 2030.63C706.646 2147.51 919.673 2242.29 1182.48 2242.29C1445.13 2242.29 1658.06 2147.66 1658.31 2030.84C1673.8 1923.1 1719.62 1543.93 1598.47 1543.93Z" fill="#07DFAE" stroke="#07A57C" stroke-width="20" stroke-miterlimit="10"/>
<path d="M759.065 2043.58L759.472 2038.15C759.472 2038.15 759.726 2034.85 760.132 2028.6C765.668 1947.28 813.16 1219.21 776.487 705.74L757.338 291.216C757.389 290.098 761.351 226.607 832.919 226.607C833.833 226.607 834.747 226.607 835.661 226.657C847.496 226.911 858.569 231.584 868.525 240.575L870.201 242.098V242.2C913.68 283.901 923.991 397.577 924.753 406.415L1005.82 754.196L1338.62 729.359L1427 253.883C1427.81 250.886 1445.23 190.95 1496.13 190.95C1498.56 190.95 1501.1 191.102 1503.59 191.356C1560.79 197.908 1552.41 314.885 1552 319.863L1542.2 912.621C1544.74 926.538 1596.14 1212.15 1579.38 1396.12L1620.11 2043.69H759.065V2043.58Z" fill="#395DA0"/>
<path d="M1496.18 195.877C1498.41 195.877 1500.7 196.029 1503.08 196.283C1556.06 202.327 1547.02 319.355 1547.02 319.355L1537.17 912.925C1537.17 912.925 1591.67 1206.82 1574.35 1395.92L1614.78 2038.5H764.499C764.499 2038.5 764.753 2035.2 765.159 2028.9C771.356 1937.93 818.187 1218.5 781.514 705.333L762.365 290.962C762.365 290.962 765.311 231.686 832.917 231.635C833.781 231.635 834.695 231.635 835.559 231.686C846.835 231.94 856.638 236.613 865.171 244.283V244.333C909.92 284.511 919.774 407.126 919.774 407.126L1001.91 759.479L1316.83 735.962L1342.93 734.031L1432.02 254.695C1432.02 254.695 1448.53 195.877 1496.18 195.877ZM1496.18 185.769C1473.22 185.769 1453.05 197.451 1437.87 219.597C1426.94 235.495 1422.42 251.343 1422.27 252.003L1422.17 252.46L1422.07 252.917L1334.4 724.584L1316.06 725.955L1009.78 748.812L929.78 405.653C928.815 394.326 918.25 283.749 875.279 240.117V239.914L871.926 236.867C861.057 227.063 848.866 221.984 835.762 221.679C834.797 221.679 833.832 221.629 832.917 221.629C756.524 221.629 752.258 289.895 752.207 290.555V291.063V291.571L771.356 705.943V706.095V706.247C808.029 1219.46 760.537 1947.13 755 2028.4C754.594 2034.59 754.34 2037.9 754.34 2037.9L753.527 2048.82H764.448H1614.73H1625.5L1624.84 2038.05L1584.45 1396.22C1600.96 1213.42 1550.73 931.465 1547.27 912.265L1557.13 319.965C1557.38 316.46 1559.21 288.219 1554.94 258.758C1550.47 227.876 1538.03 190.188 1504.25 186.327C1501.56 185.921 1498.82 185.769 1496.18 185.769Z" fill="#223266"/>
<path d="M1503.08 196.283C1503.08 196.283 1441.93 229.959 1435.48 456.649C1429.08 683.34 1367.47 856.596 1361.88 875.846C1359.49 884.126 1339.17 816.164 1316.83 735.962L1342.93 734.031L1432.02 254.695C1432.02 254.695 1450.11 190.238 1503.08 196.283Z" fill="#2B437B"/>
<path d="M1361.93 784.927C1361.93 784.927 1410.64 958.589 1342.07 1004.1C1273.5 1049.61 1190.2 999.02 1190.2 999.02C1190.2 999.02 1015.21 1026.09 994.389 960.824L987.583 890.78L1361.93 784.927Z" fill="#2B437B"/>
<path d="M1226.77 1269.29C1226.77 1269.29 1254.25 1163.24 1375.59 1115.9L1226.77 1269.29Z" fill="#395DA0"/>
<path d="M1226.77 1269.29C1226.77 1269.29 1254.25 1163.24 1375.59 1115.9" stroke="#223266" stroke-width="20" stroke-miterlimit="10" stroke-linecap="round"/>
<path d="M1251.71 981.902C1249.68 981.648 1201.78 975.756 1185.48 939.642C1169.78 904.9 1184.71 738.196 1185.37 731.136L1185.53 729.561L1186.54 728.342C1187 727.784 1198.12 714.476 1210.77 704.876C1216.97 700.101 1222.71 697.003 1227.74 695.581C1241.5 691.822 1265.63 687.454 1288.28 687.454C1302.3 687.454 1314.49 689.079 1324.45 692.33L1324.75 692.431L1325.06 692.584C1326.48 693.295 1360.21 709.701 1362.39 732.914L1362.49 733.777C1366.55 776.647 1373.72 881.281 1351.82 927.604C1350.55 930.398 1348.93 933.293 1347.1 936.188C1318.61 980.988 1255.01 981.902 1252.32 981.902H1252.02H1251.71Z" fill="#395DA0"/>
<path d="M1288.28 692.584C1300.37 692.584 1312.51 693.854 1322.92 697.207C1322.92 697.207 1355.48 712.8 1357.41 733.422C1358.93 749.473 1371.33 874.577 1347.3 925.472C1345.98 928.316 1344.46 931.008 1342.88 933.497C1315.56 976.468 1252.32 976.874 1252.32 976.874C1252.32 976.874 1205.44 971.49 1190.15 937.561C1174.81 903.631 1190.45 731.594 1190.45 731.594C1190.45 731.594 1201.53 718.286 1213.87 708.94C1218.95 705.029 1224.28 701.829 1229.11 700.508C1240.18 697.511 1264.26 692.584 1288.28 692.584ZM1288.28 682.477C1265.12 682.477 1240.48 686.946 1226.42 690.756C1220.73 692.33 1214.38 695.734 1207.67 700.915C1194.62 710.819 1183.14 724.533 1182.63 725.092L1180.6 727.53L1180.29 730.679C1178.67 748.559 1164.85 906.373 1180.85 941.726C1198.28 980.43 1248.97 986.678 1251.1 986.932L1251.71 986.982H1252.32C1255.11 986.982 1321.4 986.017 1351.37 938.932C1353.35 935.833 1355.02 932.735 1356.45 929.738C1378.85 882.297 1371.63 776.546 1367.52 733.321L1367.42 732.508C1365.03 706.908 1331.1 689.943 1327.24 688.115L1326.63 687.81L1325.97 687.607C1315.51 684.153 1302.81 682.477 1288.28 682.477Z" fill="#223266"/>
<path d="M1347.25 925.472C1345.93 928.316 1344.41 931.008 1342.83 933.497C1313.12 953.103 1275.79 953.357 1275.79 953.357C1275.79 953.357 1228.9 947.973 1213.61 914.043C1198.94 881.535 1212.65 722.248 1213.82 708.94C1218.9 705.029 1224.23 701.829 1229.06 700.508C1245.72 695.987 1291.79 687.149 1322.87 697.207C1322.87 697.207 1355.43 712.8 1357.36 733.422C1358.88 749.473 1371.28 874.577 1347.25 925.472Z" fill="#395DA0"/>
<path d="M1083.13 1004.1C1066.06 1004.1 1048.64 1000.24 1031.37 992.569C1009.27 982.715 994.542 961.585 993.019 937.357L982.707 779.898C981.387 759.428 987.939 739.619 1001.2 724.127C1011.3 712.19 1022.07 701.016 1033.2 690.908C1034.92 689.283 1036.85 687.759 1038.83 686.438C1058.54 672.368 1088.26 669.372 1109.69 669.372C1112.94 669.372 1116.09 669.422 1119.04 669.575C1134.63 670.184 1149.82 676.127 1161.86 686.337L1174.05 696.698C1187.81 708.482 1195.58 725.651 1195.28 743.784L1192.23 925.725C1192.94 928.265 1193.75 934.309 1189.89 942.944C1183.34 957.369 1167.04 972.354 1141.44 987.592C1123.1 998.563 1103.44 1004.1 1083.13 1004.1Z" fill="#395DA0"/>
<path d="M1109.69 674.451C1112.89 674.451 1115.99 674.502 1118.88 674.603C1133.51 675.162 1147.48 680.698 1158.6 690.197L1170.79 700.559C1183.39 711.327 1190.5 727.174 1190.25 743.733L1187.2 926.487C1187.2 926.487 1189.49 931.617 1185.32 940.862C1180.85 950.716 1169.02 965.344 1138.9 983.223C1119.49 994.754 1100.55 998.969 1083.18 998.969C1064.18 998.969 1047.11 993.941 1033.45 987.896C1013.13 978.855 999.519 959.198 998.097 937.001L987.786 779.542C986.567 760.545 992.713 741.854 1005.06 727.378C1013.18 717.778 1023.75 706.298 1036.6 694.616C1038.17 693.143 1039.85 691.822 1041.63 690.654C1060.06 677.498 1087.9 674.451 1109.69 674.451ZM1109.69 664.343C1077.54 664.343 1052.75 670.387 1035.89 682.324C1033.7 683.797 1031.62 685.422 1029.69 687.251C1018.52 697.41 1007.6 708.736 997.335 720.876C983.265 737.384 976.306 758.463 977.678 780.253L987.989 937.713C989.665 963.82 1005.51 986.576 1029.33 997.192C1047.26 1005.12 1065.35 1009.13 1083.18 1009.13C1104.41 1009.13 1124.93 1003.34 1144.08 991.96C1170.59 976.214 1187.61 960.417 1194.57 945.078C1198.73 935.833 1198.22 928.925 1197.36 925.217L1200.41 743.936C1200.71 724.228 1192.33 705.638 1177.4 692.889L1165.21 682.476C1152.31 671.505 1136 665.105 1119.29 664.495C1116.04 664.394 1112.79 664.343 1109.69 664.343Z" fill="#223266"/>
<path d="M1185.68 924.202C1185.68 924.202 1187.96 929.281 1183.8 938.424C1180.5 940.659 1176.89 942.894 1172.98 945.23C1132.75 969.154 1094.4 961.332 1068.5 949.802C1048.38 940.913 1034.87 921.408 1033.45 899.415L1023.24 743.429C1022.02 724.076 1028.47 705.08 1041.37 690.553C1063.42 674.858 1098.87 673.639 1121.12 674.807C1133.77 675.467 1145.8 680.343 1155.4 688.572L1169.32 700.407C1181.82 711.073 1188.83 726.769 1188.57 743.175L1185.68 924.202Z" fill="#395DA0"/>
<path d="M890.113 1192.59V2038.51L765.161 2028.91C771.358 1937.93 818.189 1218.5 781.517 705.334L762.368 290.962C762.368 290.962 765.365 230.112 835.561 231.686C846.837 231.94 856.64 236.613 865.173 244.283V244.334C865.173 244.334 783.193 249.21 804.577 381.831C825.961 514.402 890.113 1192.59 890.113 1192.59Z" fill="#2B437B"/>
<path d="M905.909 1543.93C905.909 1543.93 905.808 1543.88 905.605 1543.73C900.373 1540.53 823.32 1491.41 791.269 1363.36C758.101 1230.79 736.565 1109.14 736.565 1109.14C736.565 1109.14 732.298 1005.62 821.745 983.63C846.227 977.585 877.262 971.846 909.363 966.614C994.442 952.849 1087.19 943.097 1087.19 943.097C1087.19 943.097 1177.65 940.557 1166.89 1006.94C1156.07 1073.33 1122.75 1111.37 995.509 1125.85C995.509 1125.85 1239.27 1134.38 1277.26 1422.08" fill="#395DA0"/>
<path d="M905.909 1543.93C905.909 1543.93 905.808 1543.88 905.605 1543.73C900.373 1540.53 823.32 1491.41 791.269 1363.36C758.101 1230.79 736.565 1109.14 736.565 1109.14C736.565 1109.14 732.298 1005.62 821.745 983.63C846.227 977.585 877.262 971.846 909.363 966.614C994.442 952.849 1087.19 943.097 1087.19 943.097C1087.19 943.097 1177.65 940.557 1166.89 1006.94C1156.07 1073.33 1122.75 1111.37 995.509 1125.85C995.509 1125.85 1239.27 1134.38 1277.26 1422.08" stroke="#223266" stroke-width="20" stroke-miterlimit="10" stroke-linecap="round"/>
<path d="M923.839 1480.24L907.636 1537.84C902.506 1534.69 829.364 1492.12 797.923 1365.6C765.415 1234.6 740.222 1114.27 740.222 1114.27C740.222 1114.27 736.057 1011.97 823.777 990.233C847.802 984.24 878.227 978.602 909.719 973.421L909.821 973.471C909.821 973.471 771.307 1028.48 820.069 1166.38C868.78 1304.29 923.839 1480.24 923.839 1480.24Z" fill="#2B437B"/>
<path opacity="0.6" d="M1177.65 1484.51C1216.94 1467.08 1221.5 1391.48 1187.84 1315.67C1154.19 1239.85 1095.07 1192.52 1055.79 1209.96C1016.51 1227.39 1011.94 1302.99 1045.6 1378.81C1079.25 1454.62 1138.37 1501.95 1177.65 1484.51Z" fill="#4671B0"/>
<path opacity="0.6" d="M1419.03 1286.97C1465.41 1240.6 1483.53 1183.53 1459.51 1159.51C1435.49 1135.49 1378.42 1153.61 1332.04 1199.98C1285.67 1246.36 1267.55 1303.43 1291.57 1327.45C1315.59 1351.47 1372.66 1333.35 1419.03 1286.97Z" fill="#4671B0"/>
<path opacity="0.6" d="M1132.14 906.475C1156.02 906.475 1175.37 869.089 1175.37 822.97C1175.37 776.852 1156.02 739.466 1132.14 739.466C1108.27 739.466 1088.92 776.852 1088.92 822.97C1088.92 869.089 1108.27 906.475 1132.14 906.475Z" fill="#4671B0"/>
<path opacity="0.6" d="M870.245 406.157C888.624 403.707 899.688 372.937 894.955 337.429C890.223 301.922 871.488 275.123 853.108 277.572C834.729 280.022 823.665 310.792 828.398 346.3C833.13 381.807 851.865 408.606 870.245 406.157Z" fill="#4671B0"/>
<path opacity="0.6" d="M1537.11 313.929C1540.12 278.231 1527.58 248.03 1509.1 246.473C1490.62 244.915 1473.2 272.591 1470.19 308.288C1467.18 343.986 1479.72 374.187 1498.2 375.745C1516.68 377.302 1534.1 349.626 1537.11 313.929Z" fill="#4671B0"/>
<path opacity="0.6" d="M1304.58 899.364C1325.29 899.364 1342.07 866.958 1342.07 826.983C1342.07 787.009 1325.29 754.603 1304.58 754.603C1283.88 754.603 1267.1 787.009 1267.1 826.983C1267.1 866.958 1283.88 899.364 1304.58 899.364Z" fill="#4671B0"/>
<path opacity="0.6" d="M1144.92 1025.81C1153.82 1005.03 1138.36 978.468 1110.38 966.485C1082.4 954.502 1052.5 961.636 1043.6 982.419C1034.7 1003.2 1050.16 1029.76 1078.14 1041.75C1106.12 1053.73 1136.02 1046.6 1144.92 1025.81Z" fill="#4671B0"/>
<path d="M947.205 514.554L787.46 535.836C766.228 538.681 746.673 523.748 743.879 502.516L742.914 495.202C740.07 473.97 755.003 454.415 776.234 451.621L935.979 430.339C957.211 427.494 976.766 442.428 979.56 463.659L980.525 470.973C983.37 492.205 968.436 511.76 947.205 514.554Z" fill="#07DFAE" stroke="#07A57C" stroke-width="20" stroke-miterlimit="10"/>
<path d="M744.487 1661.16C759.167 1702.46 1348.37 1809.12 1607.21 1641.2L1642.36 2065.22L730.214 2069.49L744.487 1641.2V1661.16Z" fill="#07DFAE"/>
<path d="M734.736 1662.89C1023.09 1753.5 1370.72 1769.55 1636.98 1630.79" stroke="#07A57C" stroke-width="20" stroke-miterlimit="10" stroke-linecap="round"/>
<path opacity="0.51" d="M787.437 2039.77C782.079 1995.1 776.673 1950.43 771.315 1905.79C767.775 1876.44 764.378 1846.03 776.051 1818.12C778.443 1812.38 781.601 1806.63 787.102 1802.53C798.01 1794.4 814.61 1794.98 829.297 1796.04C855.991 1797.99 887.661 1802.92 898.042 1823.09C902.348 1831.45 901.87 1840.91 901.296 1849.98C897.995 1902.86 894.742 1955.74 891.441 2008.66C889.527 2039.85 891.01 2076.98 922.919 2094.22C939.089 2102.98 959.612 2104.19 977.456 2110.4C983.962 2112.67 990.229 2115.64 997.214 2116.58C1014.15 2118.92 1030.61 2108.41 1037.64 2095.59C1044.67 2082.77 1044.53 2068.19 1044.24 2054.16C1043.62 2023.75 1043.04 1993.34 1042.42 1962.93C1041.75 1928.58 1041.23 1893.4 1055.24 1861.04C1058.35 1853.85 1062.42 1846.54 1069.69 1841.73C1076.96 1836.88 1086.53 1835.12 1095.76 1833.76C1122.7 1829.85 1150.16 1828.36 1177.47 1829.38C1182.07 1829.54 1187.04 1829.93 1190.49 1832.43C1194.31 1835.2 1195.03 1839.78 1195.51 1843.96C1203.83 1916.38 1206.13 1989.24 1202.35 2061.9C1201.82 2072.02 1201.49 2083.04 1208.95 2091.13C1215.6 2098.4 1227.04 2101.57 1238.04 2102.74C1260.19 2105.13 1282.53 2101.14 1304.34 2097.19C1320.47 2094.26 1338.02 2090.59 1347.59 2079.6C1357.26 2068.54 1355.63 2053.61 1354 2040.09C1346.11 1976.18 1345.73 1911.65 1352.9 1847.71C1354.1 1837.24 1356.11 1825.74 1365.77 1818.83C1371.8 1814.53 1379.84 1812.73 1387.59 1811.09C1414.18 1805.42 1440.78 1799.75 1467.38 1794.09C1472.12 1793.07 1477.48 1792.09 1481.73 1794.05C1485.23 1795.65 1487.14 1798.81 1488.48 1801.94C1494.99 1817.11 1496.71 1833.33 1494.79 1849.35C1487.76 1908.72 1491.21 1968.95 1504.94 2027.54C1506.08 2032.43 1507.62 2037.78 1512.45 2040.83C1517.9 2044.23 1525.56 2043.61 1532.25 2042.39C1554.02 2038.41 1574.59 2029.93 1591.43 2017.97C1604.93 1951.95 1626.53 1810.47 1604.93 1772.67" stroke="#07A57C" stroke-width="20" stroke-miterlimit="10" stroke-linecap="round" stroke-linejoin="round"/>
<path d="M929.071 499.722C944.415 499.722 956.855 487.283 956.855 471.938C956.855 456.593 944.415 444.154 929.071 444.154C913.726 444.154 901.287 456.593 901.287 471.938C901.287 487.283 913.726 499.722 929.071 499.722Z" fill="#5EEFC9"/>
<path d="M403.309 842.628L423.728 868.685C426.927 872.799 432.464 874.374 437.391 872.596L468.476 861.218C479.448 857.206 489.149 869.599 482.648 879.301L464.159 906.78C461.264 911.097 461.467 916.837 464.667 920.951L485.086 947.008C492.299 956.202 483.511 969.256 472.286 966.056L440.439 956.964C435.41 955.542 430.026 957.472 427.08 961.84L408.591 989.319C402.039 999.02 386.902 994.703 386.496 983.021L385.328 949.903C385.125 944.672 381.62 940.151 376.591 938.729L344.744 929.637C333.519 926.437 332.909 910.691 343.931 906.678L375.017 895.301C379.944 893.523 383.144 888.748 382.941 883.517L381.772 850.399C381.315 838.818 396.147 833.434 403.309 842.628Z" fill="#07DFAE" stroke="#07A57C" stroke-width="20" stroke-miterlimit="10"/>
<path d="M1832.38 933.904L1830.04 955.694C1829.69 959.148 1831.57 962.45 1834.71 963.872L1854.73 972.862C1861.79 976.011 1860.67 986.424 1853.1 987.999L1831.62 992.519C1828.21 993.23 1825.67 996.024 1825.32 999.478L1822.98 1021.27C1822.17 1028.99 1811.96 1031.12 1808.1 1024.37L1797.18 1005.32C1795.45 1002.32 1792 1000.75 1788.59 1001.46L1767.11 1005.98C1759.54 1007.55 1754.36 998.513 1759.54 992.773L1774.27 976.519C1776.61 973.929 1777.01 970.17 1775.29 967.173L1764.37 948.126C1760.51 941.421 1767.52 933.7 1774.58 936.85L1794.59 945.84C1797.74 947.262 1801.45 946.5 1803.78 943.91L1818.51 927.656C1823.69 921.916 1833.19 926.234 1832.38 933.904Z" fill="#07DFAE" stroke="#07A57C" stroke-width="20" stroke-miterlimit="10"/>
<path d="M1810.74 393.158L1810.59 408.853C1810.59 411.342 1812.16 413.526 1814.5 414.339L1829.38 419.316C1834.66 421.094 1834.56 428.561 1829.28 430.237L1814.29 434.961C1811.91 435.723 1810.33 437.907 1810.28 440.396L1810.13 456.091C1810.08 461.627 1802.97 463.862 1799.72 459.342L1790.62 446.542C1789.2 444.51 1786.61 443.646 1784.22 444.408L1769.24 449.132C1763.96 450.808 1759.59 444.713 1762.94 440.243L1772.29 427.596C1773.76 425.615 1773.81 422.872 1772.34 420.84L1763.25 408.04C1760.05 403.52 1764.47 397.526 1769.75 399.304L1784.63 404.282C1786.97 405.094 1789.56 404.231 1791.08 402.25L1800.43 389.602C1803.68 385.234 1810.79 387.621 1810.74 393.158Z" fill="#07DFAE" stroke="#07A57C" stroke-width="20" stroke-miterlimit="10"/>
<path d="M1183.7 13.2239L1195.07 26.4302C1196.85 28.5127 1199.8 29.2238 1202.34 28.1571L1218.39 21.4017C1224.08 19.0144 1229.46 25.2619 1226.31 30.5444L1217.27 45.4777C1215.85 47.8142 1216.1 50.8618 1217.88 52.9443L1229.26 66.1506C1233.27 70.8236 1229 77.8839 1223.01 76.5125L1206.05 72.5506C1203.35 71.9411 1200.56 73.1092 1199.14 75.4457L1190.1 90.3789C1186.9 95.6614 1178.82 93.7314 1178.31 87.6362L1176.84 70.2648C1176.59 67.522 1174.66 65.2362 1171.96 64.6267L1155 60.6648C1149.01 59.2426 1148.29 51.0141 1153.98 48.6268L1170.03 41.8714C1172.57 40.8047 1174.15 38.2142 1173.89 35.4714L1172.42 18.1002C1172.07 11.751 1179.68 8.55091 1183.7 13.2239Z" fill="#07DFAE" stroke="#07A57C" stroke-width="20" stroke-miterlimit="10"/>
<path d="M529.48 140.106L518.915 157.477C517.239 160.22 517.544 163.725 519.626 166.163L532.883 181.553C537.556 186.988 532.579 195.217 525.569 193.591L505.811 188.918C502.712 188.207 499.461 189.528 497.785 192.271L487.22 209.642C483.512 215.788 474.115 213.553 473.506 206.391L471.83 186.175C471.576 182.975 469.29 180.334 466.141 179.572L446.382 174.899C439.424 173.274 438.611 163.623 445.214 160.88L463.957 153.058C466.903 151.839 468.731 148.792 468.477 145.642L466.801 125.427C466.192 118.265 475.131 114.557 479.804 119.992L493.061 135.382C495.144 137.82 498.598 138.633 501.544 137.363L520.287 129.541C526.89 126.697 533.188 134.011 529.48 140.106Z" fill="#07DFAE" stroke="#07A57C" stroke-width="20" stroke-miterlimit="10"/>
<path d="M114.47 1456.26L100.408 1470.95C98.1798 1473.26 97.7217 1476.75 99.2295 1479.58L108.856 1497.47C112.247 1503.78 105.612 1510.74 99.1182 1507.65L80.8321 1498.82C77.96 1497.46 74.501 1498.05 72.2728 1500.37L58.2105 1515.05C53.2646 1520.25 44.5707 1516.04 45.5198 1508.92L48.2422 1488.82C48.6842 1485.64 47.0218 1482.57 44.111 1481.14L25.8247 1472.32C19.3802 1469.23 20.6677 1459.63 27.7069 1458.38L47.6954 1454.78C50.835 1454.23 53.2776 1451.64 53.7086 1448.51L56.431 1428.41C57.3801 1421.29 66.9089 1419.6 70.3001 1425.91L79.9266 1443.8C81.4344 1446.63 84.632 1448.16 87.7825 1447.56L107.771 1443.96C114.832 1442.61 119.405 1451.11 114.47 1456.26Z" fill="#07DFAE" stroke="#07A57C" stroke-width="20" stroke-miterlimit="10"/>
<path d="M2085.38 1523.76L2071.32 1538.44C2069.09 1540.76 2068.63 1544.25 2070.14 1547.08L2079.77 1564.97C2083.16 1571.28 2076.52 1578.24 2070.03 1575.14L2051.74 1566.32C2048.87 1564.96 2045.41 1565.55 2043.19 1567.86L2029.12 1582.55C2024.18 1587.75 2015.48 1583.54 2016.43 1576.42L2019.15 1556.31C2019.6 1553.13 2017.93 1550.06 2015.02 1548.64L1996.74 1539.82C1990.29 1536.73 1991.58 1527.13 1998.62 1525.87L2018.61 1522.28C2021.75 1521.72 2024.19 1519.14 2024.62 1516.01L2027.34 1495.91C2028.29 1488.79 2037.82 1487.09 2041.21 1493.41L2050.84 1511.29C2052.35 1514.12 2055.54 1515.66 2058.7 1515.06L2078.68 1511.46C2085.74 1510.11 2090.32 1518.61 2085.38 1523.76Z" fill="#07DFAE" stroke="#07A57C" stroke-width="20" stroke-miterlimit="10"/>
</svg>
