<svg width="864" height="791" viewBox="0 0 864 791" fill="none" xmlns="http://www.w3.org/2000/svg">
<path d="M152.783 719.697C148.342 719.697 144.506 717.274 142.689 713.237C140.872 709.199 141.478 704.758 144.304 701.528L227.478 602.204C233.938 594.532 243.426 590.091 253.318 590.091H753.977C767.301 590.091 780.221 596.349 788.498 607.049L859.358 698.702C862.386 702.739 862.992 707.988 860.771 712.631C858.55 717.274 854.109 719.899 849.062 719.899H152.783V719.697Z" fill="#395DA0"/>
<path d="M753.978 592.11C766.898 592.11 779.011 597.964 786.884 608.26L857.743 699.913C863.396 707.181 858.147 717.88 848.861 717.88H152.783C145.112 717.88 140.873 708.998 145.92 702.941L229.094 603.617C235.15 596.349 244.033 592.312 253.521 592.312H753.978V592.11ZM753.978 588.072H253.319C242.619 588.072 232.727 592.716 225.864 600.993L142.69 700.317C139.46 704.354 138.652 709.603 140.873 714.246C143.093 718.89 147.535 721.716 152.783 721.716H848.861C854.715 721.716 859.964 718.486 862.387 713.237C865.011 707.988 864.405 701.932 860.772 697.289L789.912 605.636C781.433 594.734 767.907 588.072 753.978 588.072Z" fill="#223266"/>
<path d="M486.086 701.73C631.474 701.73 749.335 674.434 749.335 640.763C749.335 607.091 631.474 579.795 486.086 579.795C340.697 579.795 222.836 607.091 222.836 640.763C222.836 674.434 340.697 701.73 486.086 701.73Z" fill="#2B437B"/>
<path d="M501.429 693.251C426.734 693.251 355.269 680.734 289.254 656.307C270.48 649.241 259.78 629.255 264.625 609.875L274.921 568.692L311.865 420.917L335.687 325.63C335.888 325.024 335.888 324.419 336.09 323.611V323.207C340.532 304.635 351.433 288.484 367.18 277.785L387.367 263.855C376.668 262.644 366.574 257.799 358.701 250.329C349.414 241.447 343.964 229.334 343.358 216.414L339.724 135.057L304.597 62.5822C295.513 43.6057 301.367 21.399 318.729 9.48819C325.795 4.6431 333.87 2.22058 342.55 2.22058C352.442 2.22058 362.133 3.8356 371.419 7.06565C380.705 10.2957 389.386 14.9389 397.058 20.9953L525.452 121.935C530.903 126.174 535.95 130.413 540.795 134.653C585.208 173.01 620.133 219.442 644.964 272.738C654.049 291.916 661.518 312.104 667.373 332.696L752.162 626.429C755.796 638.744 748.124 651.058 734.195 655.5C657.279 680.532 579.354 693.453 502.842 693.654L501.429 693.251Z" fill="#395DA0"/>
<path d="M342.551 4.03757C352.241 4.03757 361.729 5.65261 370.612 8.68078C379.696 11.709 388.175 16.3522 395.645 22.4085L524.039 123.348C529.288 127.385 534.335 131.625 539.18 135.864C583.19 174.019 618.519 220.855 642.744 273.142C651.627 292.32 659.298 312.306 665.152 332.696L691.598 424.551L731.57 562.837L749.941 626.429C753.373 638.542 745.298 649.241 733.387 653.077C692.204 666.401 607.011 690.828 502.64 691.232C502.035 691.232 501.429 691.232 501.025 691.232C435.818 691.232 363.344 681.744 289.658 654.49C271.691 647.828 261.799 628.852 266.442 610.279L276.738 569.096L313.682 421.32L337.504 326.034C337.705 325.226 337.907 324.419 338.109 323.611C342.349 305.644 353.048 289.898 368.391 279.4L393.222 262.24C380.302 262.24 368.593 257.193 360.114 248.916C351.433 240.639 345.982 229.132 345.377 216.212L343.762 180.681L341.743 134.451L306.414 61.5729C297.33 42.5964 304.395 21.601 319.94 11.1033C326.198 6.66199 333.87 4.03757 342.551 4.03757ZM342.551 0C333.466 0 324.987 2.62443 317.518 7.67139C299.349 20.1879 293.09 43.6057 302.78 63.3898L337.705 135.46L339.724 180.883L341.339 216.414C341.945 229.94 347.597 242.456 357.288 251.743C364.353 258.405 372.832 263.048 382.119 265.066L365.968 276.17C350.02 287.273 338.715 303.827 334.072 322.804V323.208C333.87 323.813 333.87 324.621 333.668 325.226L309.846 420.513L272.902 568.288L262.607 609.471C257.56 630.063 268.663 651.058 288.447 658.326C354.663 682.955 426.33 695.27 501.227 695.27H502.842C579.556 695.068 657.481 682.148 734.801 656.913C749.74 652.068 757.815 638.744 753.979 625.42L735.608 561.828L695.636 423.541L669.19 331.686C663.336 311.095 655.664 290.907 646.58 271.527C621.749 218.029 586.42 171.395 541.805 132.836C536.96 128.597 531.913 124.559 526.462 120.118L398.067 19.1785C390.194 12.9202 381.311 8.27701 371.823 4.84507C362.537 1.61502 352.644 0 342.551 0Z" fill="#223266"/>
<path d="M465.091 250.127C462.467 250.935 459.842 251.742 457.218 252.146C461.457 250.935 464.284 250.329 465.091 250.127Z" fill="#2B437B"/>
<path d="M503.044 691.232C437.434 691.434 364.354 682.148 290.062 654.49C272.095 647.828 262.203 628.852 266.846 610.279L277.142 569.096L314.086 421.32L337.908 326.034C338.109 325.226 338.311 324.419 338.513 323.611C342.753 305.644 353.452 289.897 368.795 279.4L393.626 262.24C380.706 262.24 368.997 257.193 360.518 248.916C351.837 240.639 346.386 229.132 345.781 216.212L344.166 180.681L342.147 134.451L306.414 61.5729C297.33 42.5963 304.396 21.601 319.94 11.1033C317.114 33.5118 320.546 72.4743 363.344 109.822C363.344 109.822 380.908 116.888 381.11 175.432C381.311 233.977 409.373 250.127 409.373 250.127C409.373 250.127 431.579 257.799 457.218 252.348C436.626 258.404 382.926 278.39 372.025 322.602C358.297 377.715 326.804 621.584 326.804 621.584C326.804 621.584 320.344 671.852 503.044 691.232Z" fill="#2B437B"/>
<path d="M494.968 591.908C441.067 591.908 385.752 587.063 330.639 577.777C313.681 574.95 296.522 571.518 279.16 567.683L315.095 423.945C327.813 426.569 340.329 428.79 352.846 430.809C401.902 438.884 453.179 442.922 505.062 442.922C564.415 442.922 626.795 437.673 690.185 427.175L729.147 561.828C652.635 581.612 573.903 591.908 494.968 591.908Z" fill="#07DFAE"/>
<path d="M316.912 426.166C329.025 428.588 340.935 430.809 352.846 432.626C402.105 440.701 453.382 444.739 505.466 444.739C564.415 444.739 626.19 439.49 689.176 429.194L726.927 560.213C651.021 579.997 573.096 589.889 495.171 589.889C441.269 589.889 386.156 585.044 331.245 575.758C315.095 572.931 298.541 569.701 281.987 566.068L316.912 426.166ZM313.884 421.321L276.94 569.096C294.705 573.133 312.672 576.565 330.438 579.593C385.349 588.88 440.26 593.725 494.969 593.725C573.903 593.725 652.838 583.631 731.772 562.837L691.8 424.551C628.612 435.048 566.434 440.701 505.264 440.701C453.987 440.701 403.316 436.865 353.25 428.588C340.128 426.569 327.006 424.147 313.884 421.321Z" fill="#07A57C"/>
<path d="M340.733 321.593C345.174 305.038 355.47 290.705 369.4 281.015L399.682 260.02H393.222C381.311 260.02 370.006 255.376 361.325 247.099C352.644 238.822 347.799 227.719 347.193 215.808L345.78 182.095C357.287 180.681 369.198 179.066 381.311 177.048C429.964 168.972 481.443 156.254 538.776 137.883C581.776 175.231 615.894 220.25 640.119 271.729C554.321 299.184 463.879 315.536 371.621 320.179C361.527 320.987 351.231 321.391 340.733 321.593Z" fill="#07DFAE"/>
<path d="M538.372 140.306C580.161 176.846 613.471 220.653 637.293 270.719C552.302 297.771 462.87 313.719 371.621 318.363C362.334 318.766 352.846 319.17 343.358 319.372C348.001 304.433 357.489 291.513 370.611 282.63L395.442 265.47L405.94 258.203H393.02C381.715 258.203 370.813 253.761 362.536 245.888C354.259 238.015 349.414 227.315 349.01 216.01L347.597 184.113C358.701 182.7 370.006 181.085 381.311 179.268C430.166 171.395 481.443 158.677 538.372 140.306ZM539.382 135.864C486.288 153.024 433.799 166.752 381.109 175.433C368.593 177.451 356.278 179.268 343.761 180.681L345.376 216.212C345.982 229.132 351.433 240.437 360.114 248.916C368.794 257.193 380.503 262.24 393.222 262.24L368.391 279.4C353.25 289.898 342.348 305.644 338.109 323.611C349.414 323.41 360.719 323.006 371.823 322.4C464.081 317.757 554.523 301.607 642.945 273.142C618.72 220.855 583.391 173.818 539.382 135.864Z" fill="#07A57C"/>
<path d="M457.218 252.146C457.218 252.146 389.387 265.672 372.025 322.4C360.72 323.006 349.616 323.41 338.311 323.611C342.551 305.644 353.25 289.898 368.593 279.4L393.424 262.24C380.504 262.24 368.795 257.193 360.316 248.916C351.635 240.639 346.185 229.132 345.579 216.212L343.964 180.681C356.48 179.268 368.795 177.451 381.312 175.433C380.908 177.048 375.861 259.01 457.218 252.146Z" fill="#09C997"/>
<path d="M353.452 428.79L330.438 579.795C312.672 576.767 294.705 573.335 276.94 569.297L313.884 421.522C327.006 424.147 340.128 426.569 353.452 428.79Z" fill="#09C997"/>
<path opacity="0.6" d="M402.146 58.6789C407.61 49.2166 398.497 33.7277 381.793 24.0834C365.09 14.4392 347.12 14.2916 341.656 23.754C336.193 33.2163 345.306 48.7052 362.009 58.3494C378.713 67.9937 396.683 68.1412 402.146 58.6789Z" fill="#4671B0"/>
<path d="M586.102 256.722C595.693 249.442 589.97 225.758 573.32 203.823C556.67 181.888 535.397 170.008 525.806 177.288C516.215 184.569 521.938 208.252 538.588 230.187C555.238 252.122 576.511 264.002 586.102 256.722Z" fill="#5EEFC9"/>
<path d="M386.56 263.451L474.377 250.127" stroke="#223266" stroke-width="2" stroke-miterlimit="10" stroke-linecap="round"/>
<path d="M627.804 149.592L638.302 165.742" stroke="#09C997" stroke-width="1.0273" stroke-miterlimit="10" stroke-linecap="round"/>
<path d="M647.791 180.277L657.683 195.62" stroke="#09C997" stroke-width="1.0273" stroke-miterlimit="10" stroke-linecap="round"/>
<path d="M667.979 156.859L650.415 168.366" stroke="#09C997" stroke-width="1.0273" stroke-miterlimit="10" stroke-linecap="round"/>
<path d="M635.677 177.854L619.325 188.352" stroke="#09C997" stroke-width="1.0273" stroke-miterlimit="10" stroke-linecap="round"/>
<path d="M677.264 180.479L655.057 175.634" stroke="#09C997" stroke-width="1.0273" stroke-miterlimit="10" stroke-linecap="round"/>
<path d="M627.603 169.78L608.828 165.742" stroke="#09C997" stroke-width="1.0273" stroke-miterlimit="10" stroke-linecap="round"/>
<path d="M636.081 207.329L640.119 187.343" stroke="#09C997" stroke-width="1.0273" stroke-miterlimit="10" stroke-linecap="round"/>
<path d="M646.579 156.052L650.011 138.69" stroke="#09C997" stroke-width="1.0273" stroke-miterlimit="10" stroke-linecap="round"/>
<path d="M233.133 310.085L251.503 320.987" stroke="#09C997" stroke-width="1.1322" stroke-miterlimit="10" stroke-linecap="round"/>
<path d="M267.857 330.879L285.016 340.973" stroke="#09C997" stroke-width="1.1322" stroke-miterlimit="10" stroke-linecap="round"/>
<path d="M276.334 297.973L264.625 317.757" stroke="#09C997" stroke-width="1.1322" stroke-miterlimit="10" stroke-linecap="round"/>
<path d="M254.735 334.109L243.631 352.682" stroke="#09C997" stroke-width="1.1322" stroke-miterlimit="10" stroke-linecap="round"/>
<path d="M297.129 316.546L272.701 322.602" stroke="#09C997" stroke-width="1.1322" stroke-miterlimit="10" stroke-linecap="round"/>
<path d="M242.823 330.071L222.231 335.32" stroke="#09C997" stroke-width="1.1322" stroke-miterlimit="10" stroke-linecap="round"/>
<path d="M269.471 363.179L263.617 341.376" stroke="#09C997" stroke-width="1.1322" stroke-miterlimit="10" stroke-linecap="round"/>
<path d="M254.733 307.259L249.888 288.484" stroke="#09C997" stroke-width="1.1322" stroke-miterlimit="10" stroke-linecap="round"/>
<g opacity="0.18">
<path opacity="0.18" d="M72.6387 654.894C72.6387 654.894 182.259 692.241 90.404 702.739C-1.45076 713.237 -76.1458 799.843 143.498 789.749C363.142 779.655 337.301 750.584 490.527 771.378C643.753 792.171 781.434 727.772 710.171 702.739C638.908 677.706 234.343 652.067 232.527 617.546C230.71 583.227 -80.3852 624.612 72.6387 654.894Z" fill="#395DA0"/>
</g>
</svg>
