<svg width="251" height="117" viewBox="0 0 251 117" fill="none" xmlns="http://www.w3.org/2000/svg">
<path d="M124.869 157.069C162.048 155.909 191.601 125.657 190.878 89.4987C190.154 53.3409 159.428 24.9695 122.249 26.1295C85.0703 27.2895 55.5173 57.5415 56.2408 93.6994C56.9643 129.857 87.6904 158.229 124.869 157.069Z" stroke="#07DFAE" stroke-width="4" stroke-miterlimit="10" stroke-linecap="round"/>
<path d="M124.566 141.914C153.139 141.023 175.851 117.773 175.295 89.9849C174.739 62.1967 151.126 40.3926 122.553 41.2841C93.9797 42.1756 71.2675 65.425 71.8236 93.2132C72.3796 121.001 95.9933 142.806 124.566 141.914Z" stroke="#0F66F4" stroke-width="4" stroke-miterlimit="10" stroke-linecap="round"/>
<path d="M91.134 52.7619L103.317 112.159L123.744 100.843L132.053 141.154" stroke="#07DFAE" stroke-width="4" stroke-miterlimit="10" stroke-linecap="round"/>
<path d="M115.843 41.9142L123.275 77.3682L143.694 66.0532L155.27 130.992" stroke="#07DFAE" stroke-width="4" stroke-miterlimit="10" stroke-linecap="round"/>
</svg>
