<svg width="133" height="134" viewBox="0 0 133 134" fill="none" xmlns="http://www.w3.org/2000/svg">
<path d="M45.6688 110.174C67.0966 121.912 93.9825 114.056 105.72 92.6281C117.458 71.2002 109.602 44.3144 88.1742 32.5768C66.7463 20.8392 39.8604 28.6948 28.1229 50.1227C16.3853 71.5506 24.2409 98.4365 45.6688 110.174Z" stroke="#07DFAE" stroke-width="4" stroke-miterlimit="10" stroke-linecap="round"/>
<path d="M50.5882 101.193C67.0561 110.214 87.7185 104.177 96.7391 87.7087C105.76 71.2408 99.7226 50.5783 83.2547 41.5577C66.7868 32.5371 46.1244 38.5743 37.1038 55.0422C28.0832 71.51 34.1204 92.1725 50.5882 101.193Z" stroke="#0F66F4" stroke-width="4" stroke-miterlimit="10" stroke-linecap="round"/>
<path d="M-0.407866 207.789L-11.7831 201.558C-15.2099 199.681 -16.4702 195.381 -14.5907 191.949L20.2016 128.433C22.0787 125.006 26.3794 123.746 29.8106 125.626L41.1858 131.857C44.6126 133.734 45.873 138.034 43.9934 141.466L9.20117 204.982C7.31961 208.406 3.01894 209.666 -0.407866 207.789Z" stroke="#0F66F4" stroke-width="4" stroke-miterlimit="10" stroke-linecap="round"/>
<path d="M40.0332 131.225L30.9588 126.254C29.7127 125.572 29.2559 124.008 29.9385 122.762L37.1007 109.687C37.7833 108.441 39.3469 107.984 40.593 108.667L49.6674 113.637C50.9135 114.32 51.3704 115.883 50.6878 117.13L43.5255 130.205C42.843 131.451 41.2793 131.908 40.0332 131.225Z" stroke="#0F66F4" stroke-width="4" stroke-miterlimit="10" stroke-linecap="round"/>
<path d="M61.6202 37.7897L48.5605 76.6616L63.9205 76.8538L55.0802 103.249" stroke="#07DFAE" stroke-width="4" stroke-miterlimit="10" stroke-linecap="round"/>
<path d="M79.2463 39.6861L71.5411 62.9419L86.8967 63.1317L71.6313 105.048" stroke="#07DFAE" stroke-width="4" stroke-miterlimit="10" stroke-linecap="round"/>
</svg>
