<svg width="134" height="134" viewBox="0 0 134 134" fill="none" xmlns="http://www.w3.org/2000/svg">
<path d="M86.4099 110.174C64.982 121.912 38.0961 114.056 26.3585 92.6281C14.621 71.2002 22.4765 44.3144 43.9044 32.5768C65.3323 20.8392 92.2182 28.6948 103.956 50.1227C115.693 71.5506 107.838 98.4365 86.4099 110.174Z" stroke="#07DFAE" stroke-width="4" stroke-miterlimit="10" stroke-linecap="round"/>
<path d="M81.4904 101.193C65.0225 110.214 44.3601 104.177 35.3395 87.7087C26.3189 71.2408 32.3561 50.5783 48.8239 41.5577C65.2918 32.5371 85.9542 38.5743 94.9748 55.0422C103.995 71.51 97.9583 92.1725 81.4904 101.193Z" stroke="#0F66F4" stroke-width="4" stroke-miterlimit="10" stroke-linecap="round"/>
<path d="M132.486 207.789L143.862 201.558C147.289 199.681 148.549 195.381 146.669 191.949L111.877 128.433C110 125.006 105.699 123.746 102.268 125.626L90.8928 131.857C87.466 133.734 86.2056 138.034 88.0852 141.466L122.877 204.982C124.759 208.406 129.06 209.666 132.486 207.789Z" stroke="#0F66F4" stroke-width="4" stroke-miterlimit="10" stroke-linecap="round"/>
<path d="M92.0454 131.225L101.12 126.254C102.366 125.572 102.823 124.008 102.14 122.762L94.9779 109.687C94.2953 108.441 92.7317 107.984 91.4856 108.667L82.4112 113.637C81.1651 114.32 80.7082 115.883 81.3908 117.13L88.5531 130.205C89.2357 131.451 90.7993 131.908 92.0454 131.225Z" stroke="#0F66F4" stroke-width="4" stroke-miterlimit="10" stroke-linecap="round"/>
<path d="M70.4584 37.7897L83.5181 76.6616L68.1581 76.8538L76.9984 103.249" stroke="#07DFAE" stroke-width="4" stroke-miterlimit="10" stroke-linecap="round"/>
<path d="M52.8323 39.6861L60.5375 62.9419L45.1819 63.1317L60.4474 105.048" stroke="#07DFAE" stroke-width="4" stroke-miterlimit="10" stroke-linecap="round"/>
</svg>
